<?xml version="1.0" standalone="no"?>
<!DOCTYPE svg PUBLIC "-//W3C//DTD SVG 1.1//EN" "http://www.w3.org/Graphics/SVG/1.1/DTD/svg11.dtd" >
<svg>
<metadata>
Created by FontForge 20090914 at Wed Apr 13 15:12:42 2016
 By www-data
Copyright (c) 2013 by Mercuy. All rights reserved.
</metadata>
<defs>
<font id="STV" horiz-adv-x="0" >
  <font-face 
    font-family="STV"
    font-weight="400"
    font-stretch="normal"
    units-per-em="1000"
    panose-1="0 0 0 0 0 0 0 0 0 0"
    ascent="800"
    descent="-200"
    bbox="-34 -350 1046 834.001"
    underline-thickness="40"
    underline-position="-40"
    unicode-range="U+0020-U+FEFC"
  />
<missing-glyph 
 />
    <glyph glyph-name="shaddadammatan" unicode="&#x64c;&#x651;" arabic-form="isolated" 
d="M58 713c13.333 -32.667 34.001 -52.667 62.001 -60v13c-1.33301 44 10.167 78.333 34.5 103s54.166 27.334 89.499 8.00098c50 -29.333 62.667 -67 38 -113c-24 -42.667 -68 -63.334 -132 -62.001c-20.667 0 -41.5 4 -62.5 12s-36.167 19 -45.5 33l-37 -25l-19 44z
M120.001 405c-18.667 -2.66699 -34.333 -1.49805 -47 3.50195s-21.667 12.667 -27 23s-9 20.333 -11 30s-3 20.5 -3 32.5v52l48 8v-60c0 -29.333 8 -44 24 -44c2.66699 0 8 0.666992 16 2v94l48 8v-68c1.33301 -24 9.33301 -36 24 -36c2.66699 0 8 0.666992 16 2v94l48 8
v-116c0 -16.667 -8.33301 -26.334 -25 -29.001l-23 -4c-22.667 -2.66699 -41 -0.333984 -55 6.99902l-10 -3zM221.002 735.002c-10 6 -18.167 7.16797 -24.5 3.50098s-11.5 -8 -15.5 -13s-6.83301 -12.667 -8.5 -23s-2.83398 -19.333 -3.50098 -27s-1 -16.167 -1 -25.5
c36.667 2 60.334 14 71.001 36c11.333 21.333 5.33301 37.666 -18 48.999z" />
    <glyph glyph-name="shaddakasratan" unicode="&#x64d;&#x651;" arabic-form="isolated" 
d="M120 516c-18.667 -2.66699 -34.333 -1.5 -47 3.5s-21.667 12.833 -27 23.5s-9 20.834 -11 30.501s-3 20.5 -3 32.5v51l48 8v-59c0 -29.333 8 -44 24 -44c6.66699 0 12 0.333008 16 1v94l48 8v-59c0 -29.333 8 -44 24 -44c6.66699 0 12 0.333008 16 1v94l48 8v-116
c0 -15.333 -8.33301 -25 -25 -29l-23 -4c-22.667 -2.66699 -41 -0.333984 -55 6.99902l-10 -3zM238.001 486v-48l-188 -30v48zM238.001 411v-48l-188 -30v48z" />
    <glyph glyph-name="shaddafatha" unicode="&#x64e;&#x651;" arabic-form="isolated" 
d="M88 405c-18.667 -2.66699 -34.333 -1.49805 -47 3.50195s-21.667 12.667 -27 23s-9 20.333 -11 30s-3 20.5 -3 32.5v52l48 8v-60c0 -29.333 8 -44 24 -44c2.66699 0 8 0.666992 16 2v94l48 8v-60c0 -29.333 8 -44 24 -44c2.66699 0 8 0.666992 16 2v94l48 8v-116
c0 -16.667 -8.33301 -26.334 -25 -29.001l-23 -4c-22.667 -2.66699 -41 -0.333984 -55 6.99902l-10 -3zM206.001 660.002v-48l-188 -30v48z" />
    <glyph glyph-name="shaddadamma" unicode="&#x64f;&#x651;" arabic-form="isolated" 
d="M6 642l23 42c20 -12 41.333 -21.667 64 -29c-4 49.333 7 86.5 33 111.5s56.333 28.167 91 9.5c21.333 -12.667 35.833 -27.834 43.5 -45.501s5.5 -40.167 -6.5 -67.5c-6.66699 -12 -17.167 -23 -31.5 -33s-31.833 -18 -52.5 -24s-45.5 -6.16699 -74.5 -0.5
s-58.833 17.834 -89.5 36.501zM98 405c-18.667 -2.66699 -34.333 -1.49805 -47 3.50195s-21.667 12.667 -27 23s-9 20.333 -11 30s-3 20.5 -3 32.5v52l48 8v-60c0 -29.333 8 -44 24 -44c2.66699 0 8 0.666992 16 2v94l48 8v-60c0 -29.333 8 -44 24 -44
c2.66699 0 8 0.666992 16 2v94l48 8v-116c0 -16.667 -8.33301 -26.334 -25 -29.001l-23 -4c-22.667 -2.66699 -41 -0.333984 -55 6.99902l-10 -3zM212.001 686.002c10.667 20.667 4.66699 36.667 -18 48c-18 8.66699 -31.167 5.16699 -39.5 -10.5
s-12.833 -40.167 -13.5 -73.5c34 2 57.667 14 71 36z" />
    <glyph glyph-name="shaddakasra" unicode="&#x650;&#x651;" arabic-form="isolated" 
d="M88 516c-18.667 -2.66699 -34.333 -1.5 -47 3.5s-21.667 12.833 -27 23.5s-9 20.834 -11 30.501s-3 20.5 -3 32.5v51l48 8v-59c0 -29.333 8 -44 24 -44c6.66699 0 12 0.333008 16 1v94l48 8v-68c1.33301 -23.333 9.33301 -35 24 -35c6.66699 0 12 0.333008 16 1v94l48 8
v-116c0 -15.333 -8.33301 -25 -25 -29l-23 -4c-22.667 -2.66699 -41 -0.333984 -55 6.99902l-10 -3zM206.001 483v-48l-188 -30v48z" />
    <glyph glyph-name="aleffathatan.fin" unicode="&#x64b;&#xfe8e;" horiz-adv-x="213" arabic-form="final" 
d="M189 724v-48l-189 -65v48zM189 649v-48l-189 -65v48zM40 501l89.999 31.999v-383c0 -23.333 5.33301 -39.166 16 -47.499s26.334 -12.5 47.001 -12.5h29v-90h-37c-96.667 0 -145 46 -145 138v363z" />
    <glyph glyph-name="aleffathatan.iso" unicode="&#x627;&#x64b;" horiz-adv-x="170" arabic-form="isolated" 
d="M179 724v-48l-189 -65v48zM179 649v-48l-189 -65v48zM40 508l90 32v-513l-90 -33v514z" />
    <glyph glyph-name="lamalefmaddaabove.iso" unicode="&#xfedf;&#xfe82;" horiz-adv-x="489" arabic-form="isolated" 
d="M6 611c18.667 16 35.9971 24.833 51.9971 26.5s29.333 -0.5 40 -6.5s24.334 -8.83301 41.001 -8.5s35.334 6.5 56.001 18.5v-50c-16.667 -11.333 -32.167 -17.833 -46.5 -19.5s-26.833 -0.5 -37.5 3.5s-21.167 7.66699 -31.5 11s-21.666 3.33301 -33.999 0
s-25.5 -12 -39.5 -26v51zM358.997 579l90 32.001v-473c0 -92 -48.333 -138 -145 -138h-274v90h29c48.667 0 81.167 18 97.5 54s14.166 77.667 -6.50098 125l-99 244l86 30l97 -239c32.667 -82.667 31.667 -154 -3 -214h65c20.667 0 36.334 4.16699 47.001 12.5
s16 24.166 16 47.499v429z" />
    <glyph glyph-name="lamalefmaddaabove.fin" unicode="&#xfee0;&#xfe82;" horiz-adv-x="515" arabic-form="final" 
d="M6 611c18.667 16 35.9971 24.833 51.9971 26.5s29.333 -0.5 40 -6.5s24.334 -8.83301 41.001 -8.5s35.334 6.5 56.001 18.5v-50c-16.667 -11.333 -32.167 -17.833 -46.5 -19.5s-26.833 -0.5 -37.5 3.5s-21.167 7.66699 -31.5 11s-21.666 3.33301 -33.999 0
s-25.5 -12 -39.5 -26v51zM358.997 579l90.001 32.001v-473c0.666992 -14 6.66699 -25.5 18 -34.5s24.666 -13.5 39.999 -13.5h11v-90h-11c-35.333 0 -67 11.333 -95 34c-24 -22.667 -60 -34 -108 -34h-274v90h29c48.667 0 81.167 18 97.5 54s14.166 77.667 -6.50098 125
l-99 244l86 30l97 -239c32.667 -82.667 31.667 -154 -3 -214h65c20.667 0 36.334 4.16699 47.001 12.5s16 24.166 16 47.499v429z" />
    <glyph glyph-name="lamalefhamzaabove.iso" unicode="&#xfedf;&#xfe84;" horiz-adv-x="489" arabic-form="isolated" 
d="M169 578l-145 0.00195312v50h22c-2.66699 9.33301 -4 16.666 -4 21.999c0 23.333 7.83301 41.166 23.5 53.499s34.5 18.5 56.5 18.5c17.333 0 34 -3.66699 50 -11l-22 -44c-12 4.66699 -21.667 7 -29 7c-19.333 0 -29 -8 -29 -24c0 -14.667 7 -22 21 -22h56v-50z
M359 579.002l90 32.001v-473c0 -92 -48.333 -138 -145 -138h-274v90h29c48.667 0 81.167 18 97.5 54s14.166 77.667 -6.50098 125l-99 244l86 30l97 -239c32.667 -82.667 31.667 -154 -3 -214h65c20.667 0 36.334 4.16699 47.001 12.5s16 24.166 16 47.499v429z" />
    <glyph glyph-name="lamalefhamzaabove.fin" unicode="&#xfee0;&#xfe84;" horiz-adv-x="515" arabic-form="final" 
d="M169 578l-145 0.00195312v50h22c-2.66699 9.33301 -4 16.666 -4 21.999c0 23.333 7.83301 41.166 23.5 53.499s34.5 18.5 56.5 18.5c17.333 0 34 -3.66699 50 -11l-22 -44c-12 4.66699 -21.667 7 -29 7c-19.333 0 -29 -8 -29 -24c0 -14.667 7 -22 21 -22h56v-50z
M359 579.002l90.001 32.001v-473c0.666992 -14 6.66699 -25.5 18 -34.5s24.666 -13.5 39.999 -13.5h11v-90h-11c-35.333 0 -67 11.333 -95 34c-24 -22.667 -60 -34 -108 -34h-274v90h29c48.667 0 81.167 18 97.5 54s14.166 77.667 -6.50098 125l-99 244l86 30l97 -239
c32.667 -82.667 31.667 -154 -3 -214h65c20.667 0 36.334 4.16699 47.001 12.5s16 24.166 16 47.499v429z" />
    <glyph glyph-name="lamalefhamzabelow.iso" unicode="&#xfedf;&#xfe88;" horiz-adv-x="489" arabic-form="isolated" 
d="M248 -186l-145 0.00195312v50h22c-2.66699 9.33301 -4 16.666 -4 21.999c0 23.333 7.83301 41.166 23.5 53.499s34.5 18.5 56.5 18.5c17.333 0 34 -3.66699 50 -11l-22 -44c-11.333 4.66699 -21 7 -29 7c-19.333 0 -29 -8 -29 -24c0 -14.667 7 -22 21 -22h56v-50z
M359 579.002l90 32.001v-473c0 -92 -48.333 -138 -145 -138h-274v90h29c48.667 0 81.167 18 97.5 54s14.166 77.667 -6.50098 125l-99 244l86 30l97 -239c32.667 -82.667 31.667 -154 -3 -214h65c20.667 0 36.334 4.16699 47.001 12.5s16 24.166 16 47.499v429z" />
    <glyph glyph-name="lamalefhamzabelow.fin" unicode="&#xfee0;&#xfe88;" horiz-adv-x="515" arabic-form="final" 
d="M248 -186l-145 0.00195312v50h22c-2.66699 9.33301 -4 16.666 -4 21.999c0 23.333 7.83301 41.166 23.5 53.499s34.5 18.5 56.5 18.5c17.333 0 34 -3.66699 50 -11l-22 -44c-11.333 4.66699 -21 7 -29 7c-19.333 0 -29 -8 -29 -24c0 -14.667 7 -22 21 -22h56v-50z
M359 579.002l90.001 32.001v-473c0.666992 -14 6.66699 -25.5 18 -34.5s24.666 -13.5 39.999 -13.5h11v-90h-11c-35.333 0 -67 11.333 -95 34c-24 -22.667 -60 -34 -108 -34h-274v90h29c48.667 0 81.167 18 97.5 54s14.166 77.667 -6.50098 125l-99 244l86 30l97 -239
c32.667 -82.667 31.667 -154 -3 -214h65c20.667 0 36.334 4.16699 47.001 12.5s16 24.166 16 47.499v429z" />
    <glyph glyph-name="lamalef.iso" unicode="&#xfedf;&#xfe8e;" horiz-adv-x="489" arabic-form="isolated" 
d="M359 579l90 32.001v-473c0 -92 -48.333 -138 -145 -138h-274v90h29c48.667 0 81.167 18 97.5 54s14.166 77.667 -6.50098 125l-99 244l86 30l97 -239c32.667 -82.667 31.667 -154 -3 -214h65c20.667 0 36.334 4.16699 47.001 12.5s16 24.166 16 47.499v429z" />
    <glyph glyph-name="lamalef.fin" unicode="&#xfee0;&#xfe8e;" horiz-adv-x="515" arabic-form="final" 
d="M359 579l90.001 32.001v-473c0.666992 -14 6.66699 -25.5 18 -34.5s24.666 -13.5 39.999 -13.5h11v-90h-11c-35.333 0 -67 11.333 -95 34c-24 -22.667 -60 -34 -108 -34h-274v90h29c48.667 0 81.167 18 97.5 54s14.166 77.667 -6.50098 125l-99 244l86 30l97 -239
c32.667 -82.667 31.667 -154 -3 -214h65c20.667 0 36.334 4.16699 47.001 12.5s16 24.166 16 47.499v429z" />
    <glyph glyph-name="hamza" unicode="&#x621;" horiz-adv-x="372" arabic-form="isolated" 
d="M341 0l-310.999 0.000976562v80h59c-11.333 22 -17 44 -17 66c0 50 17.167 88.167 51.5 114.5s75.5 39.5 123.5 39.5c34.667 0 68.667 -7 102 -21l-35 -72c-20.667 8.66699 -44.334 13 -71.001 13c-24 0 -45.333 -6.66699 -64 -20s-28 -31.333 -28 -54
c0 -20.667 7.16699 -36.834 21.5 -48.501s31.833 -17.5 52.5 -17.5h116v-80z" />
    <glyph glyph-name="alefmaddaabove.iso" unicode="&#x622;" horiz-adv-x="170" arabic-form="isolated" 
d="M-14 611c18.667 16 35.9971 24.833 51.9971 26.5s29.333 -0.5 40 -6.5s24.334 -8.83301 41.001 -8.5s35.334 6.5 56.001 18.5v-50c-16.667 -11.333 -32.167 -17.833 -46.5 -19.5s-26.833 -0.5 -37.5 3.5s-21.167 7.66699 -31.5 11s-21.666 3.33301 -33.999 0
s-25.5 -12 -39.5 -26v51zM39.9971 508l90 32v-513l-90 -33v514z" />
    <glyph glyph-name="alefhamzaabove.iso" unicode="&#x623;" horiz-adv-x="170" arabic-form="isolated" 
d="M40 508l90 32v-513l-90 -33v514zM149 578l-145 0.00195312v50h22c-2.66699 9.33301 -4 16.666 -4 21.999c0 23.333 7.83301 41.166 23.5 53.499s34.5 18.5 56.5 18.5c17.333 0 34 -3.66699 50 -11l-22 -44c-12 4.66699 -21.667 7 -29 7c-19.333 0 -29 -8 -29 -24
c0 -14.667 7 -22 21 -22h56v-50z" />
    <glyph glyph-name="wawhamza.iso" unicode="&#x624;" horiz-adv-x="446" arabic-form="isolated" 
d="M282 453l-145 0.00195312v50h22c-2.66699 9.33301 -4 16.666 -4 21.999c0 23.333 7.83301 41.166 23.5 53.499s34.5 18.5 56.5 18.5c17.333 0 34 -3.66699 50 -11l-22 -44c-11.333 4.66699 -21 7 -29 7c-19.333 0 -29 -8 -29 -24c0 -14.667 7 -22 21 -22h56v-50z
M256 0.00195312l-59 0.000976562c-46 0 -85.333 22.167 -118 66.5s-49 91.833 -49 142.5c0 26 2.66699 50.167 8 72.5s14.333 44.166 27 65.499s31.5 38 56.5 50s55.5 18 91.5 18h193v-417c0 -94.667 -47 -168 -141 -220l-103 53c102.667 36 154 91.667 154 167v62z
M316 325.003h-103.001c-62 0 -93 -38.667 -93 -116c0 -29.333 8.83301 -56.5 26.5 -81.5s39.834 -37.5 66.501 -37.5h103v235z" />
    <glyph glyph-name="alefhamzabelow.iso" unicode="&#x625;" horiz-adv-x="170" arabic-form="isolated" 
d="M149 -176l-145 0.00195312v50h22c-2.66699 9.33301 -4 16.666 -4 21.999c0 23.333 7.83301 41.166 23.5 53.499s34.5 18.5 56.5 18.5c17.333 0 34 -3.66699 50 -11l-22 -44c-12 4.66699 -21.667 7 -29 7c-19.333 0 -29 -8 -29 -24c0 -14.667 7 -22 21 -22h56v-50z
M40 579.002l90 32v-584l-90 -33v585z" />
    <glyph glyph-name="yehhamza.iso" unicode="&#x626;" horiz-adv-x="687" arabic-form="isolated" 
d="M157 214l-145 0.00195312v50h22c-2.66699 9.33301 -4 16.666 -4 21.999c0 23.333 7.83301 41.166 23.5 53.499s34.5 18.5 56.5 18.5c17.333 0 34 -3.66699 50 -11l-22 -44c-11.333 4.66699 -21 7 -29 7c-19.333 0 -29 -8 -29 -24c0 -14.667 7 -22 21 -22h56v-50z
M663 413.002l-19.001 -89c-74 4.66699 -133.667 -32.666 -179 -111.999c68 -24.667 116.833 -52 146.5 -82s44.5 -66.667 44.5 -110c0 -50 -14.167 -89.167 -42.5 -117.5s-68.166 -42.5 -119.499 -42.5h-312c-101.333 0 -152 57.667 -152 173v98l90 33v-133
c0 -28.667 3.83301 -49.334 11.5 -62.001s24.834 -19 51.501 -19h311c25.333 0 43.666 6.83301 54.999 20.5s17 30.167 17 49.5c0 50.667 -57 89.334 -171 116.001l-26 90c35.333 66.667 75.833 116.167 121.5 148.5s103.167 45.166 172.5 38.499z" />
    <glyph glyph-name="alef.iso" unicode="&#x627;" horiz-adv-x="170" arabic-form="isolated" 
d="M40 579l90 32v-584l-90 -33v585z" />
    <glyph glyph-name="beh.iso" unicode="&#x628;" horiz-adv-x="720" arabic-form="isolated" 
d="M598 383l90 31.999v-277c0 -92 -48.667 -138 -146 -138h-366c-96.667 0 -145 46 -145 138v245l90 32v-265c0 -23.333 5.33301 -39.166 16 -47.499s26.334 -12.5 47.001 -12.5h351c21.333 0 37.166 4 47.499 12s15.5 24 15.5 48v233zM359 -188.001l-64 64l64 64l64 -64z
" />
    <glyph glyph-name="tehmarbuta.iso" unicode="&#x629;" horiz-adv-x="445" arabic-form="isolated" 
d="M163 483l-64 64l64 64l64 -64zM291 483l-64 64l64 64l64 -64zM405 415v-277c0 -92 -44 -138 -132 -138h-97c-97.333 0 -146 46 -146 138v140c0 91.333 48.667 137 146 137h229zM315 325h-132c-21.333 0 -37.166 -4 -47.499 -12s-15.5 -24 -15.5 -48v-115
c0 -24.667 5.16699 -40.834 15.5 -48.501s26.166 -11.5 47.499 -11.5h68c22 0 38.167 3.83301 48.5 11.5s15.5 23.834 15.5 48.501v175z" />
    <glyph glyph-name="teh.iso" unicode="&#x62a;" horiz-adv-x="720" arabic-form="isolated" 
d="M597 383l90 31.999v-277c0 -92 -48.667 -138 -146 -138h-366c-96.667 0 -145 46 -145 138v245l90 32v-265c0 -23.333 5.33301 -39.166 16 -47.499s26.334 -12.5 47.001 -12.5h351c21.333 0 37.166 4 47.499 12s15.5 24 15.5 48v233zM295 482.999l-64 64l64 64l64 -64z
M423 482.999l-64 64l64 64l64 -64z" />
    <glyph glyph-name="theh.iso" unicode="&#x62b;" horiz-adv-x="720" arabic-form="isolated" 
d="M597 383l90 31.999v-277c0 -92 -48.667 -138 -146 -138h-366c-96.667 0 -145 46 -145 138v245l90 32v-265c0 -23.333 5.33301 -39.166 16 -47.499s26.334 -12.5 47.001 -12.5h351c21.333 0 37.166 4 47.499 12s15.5 24 15.5 48v233zM359 590.999l-64 64l64 64l64 -64z
M295 482.999l-64 64l64 64l64 -64zM423 482.999l-64 64l64 64l64 -64z" />
    <glyph glyph-name="jeem.iso" unicode="&#x62c;" horiz-adv-x="578" arabic-form="isolated" 
d="M319 -188l-64 64l64 64l64 -64zM30 -126c0 63.333 20.998 115.168 62.998 155.501s93 60.5 153 60.5h176c-14 25.333 -29 67.333 -45 126c-5.33301 21.333 -12.333 39.333 -21 54s-17 25.667 -25 33s-19 12.833 -33 16.5s-25.667 5.83398 -35 6.50098s-23.333 1 -42 1
h-67c4 10 9.33301 24.167 16 42.5s12 33.5 16 45.5h65c23.333 0 44.5 -2.33301 63.5 -7s35 -9.83398 48 -15.501s25 -14.5 36 -26.5s19.5 -22 25.5 -30s12.167 -20.333 18.5 -37s10.666 -28.834 12.999 -36.501s5.83301 -20.5 10.5 -38.5
c10.667 -42 21.834 -73.5 33.501 -94.5s28.5 -34.167 50.5 -39.5v-90h-304c-37.333 0 -67.666 -11.5 -90.999 -34.5s-35 -53.5 -35 -91.5c0 -38.667 11.833 -70.667 35.5 -96s53.834 -38 90.501 -38h150l-41 -90h-109c-62 0 -113.5 21 -154.5 63s-61.5 95.667 -61.5 161z
" />
    <glyph glyph-name="hah.iso" unicode="&#x62d;" horiz-adv-x="578" arabic-form="isolated" 
d="M30 -126c0 63.333 20.998 115.168 62.998 155.501s93 60.5 153 60.5h176c-14 25.333 -29 67.333 -45 126c-5.33301 21.333 -12.333 39.333 -21 54s-17 25.667 -25 33s-19 12.833 -33 16.5s-25.667 5.83398 -35 6.50098s-23.333 1 -42 1h-67c4 10 9.33301 24.167 16 42.5
s12 33.5 16 45.5h65c23.333 0 44.5 -2.33301 63.5 -7s35 -9.83398 48 -15.501s25 -14.5 36 -26.5s19.5 -22 25.5 -30s12.167 -20.333 18.5 -37s10.666 -28.834 12.999 -36.501s5.83301 -20.5 10.5 -38.5c10.667 -42 21.834 -73.5 33.501 -94.5s28.5 -34.167 50.5 -39.5v-90
h-304c-37.333 0 -67.666 -11.5 -90.999 -34.5s-35 -53.5 -35 -91.5c0 -38.667 11.833 -70.667 35.5 -96s53.834 -38 90.501 -38h150l-41 -90h-109c-62 0 -113.5 21 -154.5 63s-61.5 95.667 -61.5 161z" />
    <glyph glyph-name="khah.iso" unicode="&#x62e;" horiz-adv-x="578" arabic-form="isolated" 
d="M297 476l-64 64l64 64l64 -64zM30 -126c0 63.333 20.998 115.168 62.998 155.501s93 60.5 153 60.5h176c-14 25.333 -29 67.333 -45 126c-5.33301 21.333 -12.333 39.333 -21 54s-17 25.667 -25 33s-19 12.833 -33 16.5s-25.667 5.83398 -35 6.50098s-23.333 1 -42 1h-67
c4 10 9.33301 24.167 16 42.5s12 33.5 16 45.5h65c23.333 0 44.5 -2.33301 63.5 -7s35 -9.83398 48 -15.501s25 -14.5 36 -26.5s19.5 -22 25.5 -30s12.167 -20.333 18.5 -37s10.666 -28.834 12.999 -36.501s5.83301 -20.5 10.5 -38.5c10.667 -42 21.834 -73.5 33.501 -94.5
s28.5 -34.167 50.5 -39.5v-90h-304c-37.333 0 -67.666 -11.5 -90.999 -34.5s-35 -53.5 -35 -91.5c0 -38.667 11.833 -70.667 35.5 -96s53.834 -38 90.501 -38h150l-41 -90h-109c-62 0 -113.5 21 -154.5 63s-61.5 95.667 -61.5 161z" />
    <glyph glyph-name="dal.iso" unicode="&#x62f;" horiz-adv-x="453" arabic-form="isolated" 
d="M72 415l100 0.000976562c32 0 60.5 -2.16699 85.5 -6.5s45.833 -9.83301 62.5 -16.5s30.667 -15.834 42 -27.501s20 -22.667 26 -33s10.5 -24 13.5 -41s4.83301 -31.5 5.5 -43.5s1 -27.667 1 -47v-200h-378v90h286v110c0 45.333 -9.5 77.5 -28.5 96.5
s-57.833 28.5 -116.5 28.5h-99v90z" />
    <glyph glyph-name="thal.iso" unicode="&#x630;" horiz-adv-x="453" arabic-form="isolated" 
d="M196 476l-64 64l64 64l64 -64zM72 415l100 0.000976562c32 0 60.5 -2.16699 85.5 -6.5s45.833 -9.83301 62.5 -16.5s30.667 -15.834 42 -27.501s20 -22.667 26 -33s10.5 -24 13.5 -41s4.83301 -31.5 5.5 -43.5s1 -27.667 1 -47v-200h-378v90h286v110
c0 45.333 -9.5 77.5 -28.5 96.5s-57.833 28.5 -116.5 28.5h-99v90z" />
    <glyph glyph-name="reh.iso" unicode="&#x631;" horiz-adv-x="230" arabic-form="isolated" 
d="M80 2v381l90 32v-433c0 -34 -8 -69 -24 -105s-43.333 -66.333 -82 -91l-87 45c19.333 8 35.833 18.167 49.5 30.5s24 24 31 35s12.167 24 15.5 39s5.33301 26.667 6 35s1 18.833 1 31.5z" />
    <glyph glyph-name="zain.iso" unicode="&#x632;" horiz-adv-x="230" arabic-form="isolated" 
d="M125 476l-64 64l64 64l64 -64zM80 2v381l90 32v-433c0 -34 -8 -69 -24 -105s-43.333 -66.333 -82 -91l-87 45c19.333 8 35.833 18.167 49.5 30.5s24 24 31 35s12.167 24 15.5 39s5.33301 26.667 6 35s1 18.833 1 31.5z" />
    <glyph glyph-name="seen.iso" unicode="&#x633;" horiz-adv-x="998" arabic-form="isolated" 
d="M958 415l-0.00195312 -271.999c0 -36 -13.667 -68.833 -41 -98.5s-63 -44.5 -107 -44.5h-12c-40.667 0 -75 14 -103 42c-29.333 -28 -63.666 -42 -102.999 -42h-12c-23.333 0 -44 4.33301 -62 13c-8.66699 -44.667 -33 -82.334 -73 -113.001s-96.333 -46 -169 -46
c-83.333 0 -145.166 19.667 -185.499 59s-60.5 85 -60.5 137v193l90 32v-219c0 -70 52 -105 156 -105s156 35 156 105v327l90 32v-272c0 -14.667 5.66699 -27.167 17 -37.5s25 -15.5 41 -15.5h12c15.333 0 28.833 5.16699 40.5 15.5s17.5 22.833 17.5 37.5v240l90 32v-272
c0 -14.667 5.66699 -27.167 17 -37.5s25 -15.5 41 -15.5h12c15.333 0 28.833 5.16699 40.5 15.5s17.5 22.833 17.5 37.5v240z" />
    <glyph glyph-name="sheen.iso" unicode="&#x634;" horiz-adv-x="998" arabic-form="isolated" 
d="M695 591l-64 64l64 64l64 -64zM631 483l-64 64l64 64l64 -64zM759 483l-64 64l64 64l64 -64zM958 415l-0.00195312 -271.999c0 -36 -13.667 -68.833 -41 -98.5s-63 -44.5 -107 -44.5h-12c-40.667 0 -75 14 -103 42c-29.333 -28 -63.666 -42 -102.999 -42h-12
c-23.333 0 -44 4.33301 -62 13c-8.66699 -44.667 -33 -82.334 -73 -113.001s-96.333 -46 -169 -46c-83.333 0 -145.166 19.667 -185.499 59s-60.5 85 -60.5 137v193l90 32v-219c0 -70 52 -105 156 -105s156 35 156 105v327l90 32v-272c0 -14.667 5.66699 -27.167 17 -37.5
s25 -15.5 41 -15.5h12c15.333 0 28.833 5.16699 40.5 15.5s17.5 22.833 17.5 37.5v240l90 32v-272c0 -14.667 5.66699 -27.167 17 -37.5s25 -15.5 41 -15.5h12c15.333 0 28.833 5.16699 40.5 15.5s17.5 22.833 17.5 37.5v240z" />
    <glyph glyph-name="sad.iso" unicode="&#x635;" horiz-adv-x="957" arabic-form="isolated" 
d="M276 -146c-83.333 0 -145.169 19.667 -185.502 59s-60.5 85 -60.5 137v193l90 32v-219c0 -70 52 -105 156 -105s156 35 156 105v359h90v-88c102.667 59.333 179 89 229 89c14.667 0 28.667 -1.33301 42 -4s27.833 -8.16699 43.5 -16.5s29.167 -19.333 40.5 -33
s20.833 -32.5 28.5 -56.5s11.5 -51.667 11.5 -83v-85c0 -92 -48.333 -138 -145 -138h-257c-11.333 -42 -36.666 -76.833 -75.999 -104.5s-93.666 -41.5 -162.999 -41.5zM750.997 326c-25.333 0 -61.833 -12 -109.5 -36s-87.5 -47.667 -119.5 -71v-129h250
c36.667 0 55 16 55 48v85c0 38.667 -7.66699 65.5 -23 80.5s-33 22.5 -53 22.5z" />
    <glyph glyph-name="dad.iso" unicode="&#x636;" horiz-adv-x="957" arabic-form="isolated" 
d="M726 476l-64 64l64 64l64 -64zM276 -146c-83.333 0 -145.169 19.667 -185.502 59s-60.5 85 -60.5 137v193l90 32v-219c0 -70 52 -105 156 -105s156 35 156 105v359h90v-88c102.667 59.333 179 89 229 89c14.667 0 28.667 -1.33301 42 -4s27.833 -8.16699 43.5 -16.5
s29.167 -19.333 40.5 -33s20.833 -32.5 28.5 -56.5s11.5 -51.667 11.5 -83v-85c0 -92 -48.333 -138 -145 -138h-257c-11.333 -42 -36.666 -76.833 -75.999 -104.5s-93.666 -41.5 -162.999 -41.5zM750.997 326c-25.333 0 -61.833 -12 -109.5 -36s-87.5 -47.667 -119.5 -71
v-129h250c36.667 0 55 16 55 48v85c0 38.667 -7.66699 65.5 -23 80.5s-33 22.5 -53 22.5z" />
    <glyph glyph-name="tah.iso" unicode="&#x637;" horiz-adv-x="649" arabic-form="isolated" 
d="M124 537l90 32v-242c102.667 59.333 179 89 229 89c14.667 0 28.667 -1.33301 42 -4s27.833 -8.16699 43.5 -16.5s29.167 -19.333 40.5 -33s20.833 -32.5 28.5 -56.5s11.5 -51.667 11.5 -83v-85c0 -92 -48.333 -138 -145 -138h-250v-41l-90 -33v74h-94v90h94v447z
M443 326c-25.333 0 -61.833 -12 -109.5 -36s-87.5 -47.667 -119.5 -71v-129h250c36.667 0 55 16 55 48v85c0 38.667 -7.66699 65.5 -23 80.5s-33 22.5 -53 22.5z" />
    <glyph glyph-name="zah.iso" unicode="&#x638;" horiz-adv-x="649" arabic-form="isolated" 
d="M418 476l-64 64l64 64l64 -64zM124 537l90 32v-242c102.667 59.333 179 89 229 89c14.667 0 28.667 -1.33301 42 -4s27.833 -8.16699 43.5 -16.5s29.167 -19.333 40.5 -33s20.833 -32.5 28.5 -56.5s11.5 -51.667 11.5 -83v-85c0 -92 -48.333 -138 -145 -138h-250v-41
l-90 -33v74h-94v90h94v447zM443 326c-25.333 0 -61.833 -12 -109.5 -36s-87.5 -47.667 -119.5 -71v-129h250c36.667 0 55 16 55 48v85c0 38.667 -7.66699 65.5 -23 80.5s-33 22.5 -53 22.5z" />
    <glyph glyph-name="ain.iso" unicode="&#x639;" horiz-adv-x="533" arabic-form="isolated" 
d="M429 415l40.998 -90.001h-142c-27.333 0 -49.666 -11.667 -66.999 -35s-26 -49.666 -26 -78.999c0 -80.667 31 -121 93 -121h165v-90h-247c-38 0 -68.5 -11.5 -91.5 -34.5s-34.5 -53.5 -34.5 -91.5c0 -38.667 11.833 -70.667 35.5 -96s53.834 -38 90.501 -38h150l-41 -90
h-109c-62 0 -113.5 21 -154.5 63s-61.5 95.667 -61.5 161c0 52 12.833 96 38.5 132s60.834 60.667 105.501 74c-19.333 35.333 -29 79 -29 131s17.167 99 51.5 141s78.166 63 131.499 63h101z" />
    <glyph glyph-name="ghain.iso" unicode="&#x63a;" horiz-adv-x="533" arabic-form="isolated" 
d="M354 476l-64 64l64 64l64 -64zM429 415l40.998 -90.001h-142c-27.333 0 -49.666 -11.667 -66.999 -35s-26 -49.666 -26 -78.999c0 -80.667 31 -121 93 -121h165v-90h-247c-38 0 -68.5 -11.5 -91.5 -34.5s-34.5 -53.5 -34.5 -91.5c0 -38.667 11.833 -70.667 35.5 -96
s53.834 -38 90.501 -38h150l-41 -90h-109c-62 0 -113.5 21 -154.5 63s-61.5 95.667 -61.5 161c0 52 12.833 96 38.5 132s60.834 60.667 105.501 74c-19.333 35.333 -29 79 -29 131s17.167 99 51.5 141s78.166 63 131.499 63h101z" />
    <glyph glyph-name="feh.iso" unicode="&#x641;" horiz-adv-x="908" arabic-form="isolated" 
d="M868 415l-0.000976562 -277.001c0 -92 -44 -138 -132 -138h-561c-96.667 0 -145 46 -145 138v245l90 32v-265c0 -23.333 5.33301 -39.166 16 -47.499s26.334 -12.5 47.001 -12.5h310v188c0 91.333 48.667 137 146 137h229zM777.999 324.999l-132.001 -0.000976562
c-21.333 0 -37.166 -4 -47.499 -12s-15.5 -24 -15.5 -48v-175h131c22 0 38.167 3.83301 48.5 11.5s15.5 23.834 15.5 48.501v175zM689.998 475.998l-64 64l64 64l64 -64z" />
    <glyph glyph-name="qaf.iso" unicode="&#x642;" horiz-adv-x="772" arabic-form="isolated" 
d="M626 483l-64 64l64 64l64 -64zM498 483l-64 64l64 64l64 -64zM582 0h-59c-46 0 -85.333 22.167 -118 66.5s-49 91.833 -49 142.5c0 26 2.66699 50.167 8 72.5s14.333 44.166 27 65.499s31.5 38 56.5 50s55.5 18 91.5 18h193v-478c0 -92 -48.667 -138 -146 -138h-411
c-96.667 0 -145 46 -145 138v245l90 32v-265c0 -23.333 5.33301 -39.166 16 -47.499s26.334 -12.5 47.001 -12.5h396c21.333 0 37.166 4 47.499 12s15.5 24 15.5 48v111zM642 325h-103.001c-62 0 -93 -38.667 -93 -116c0 -29.333 8.83301 -56.5 26.5 -81.5
s39.834 -37.5 66.501 -37.5h103v235z" />
    <glyph glyph-name="kaf.iso" unicode="&#x643;" horiz-adv-x="727" arabic-form="isolated" 
d="M597 579l90 31.999v-473c0 -92 -48.667 -138 -146 -138h-366c-96.667 0 -145 46 -145 138v105l90 32v-125c0 -23.333 5.33301 -39.166 16 -47.499s26.334 -12.5 47.001 -12.5h351c21.333 0 37.166 4 47.499 12s15.5 24 15.5 48v429zM444 335.999l-165 0.00195312v50h32
c-2.66699 9.33301 -4 16.666 -4 21.999c0 23.333 7.83301 41.166 23.5 53.499s34.5 18.5 56.5 18.5c17.333 0 34 -3.66699 50 -11l-22 -44c-11.333 4.66699 -21 7 -29 7c-19.333 0 -29 -8 -29 -24c0 -14.667 7 -22 21 -22h66v-50z" />
    <glyph glyph-name="lam.iso" unicode="&#x644;" horiz-adv-x="563" arabic-form="isolated" 
d="M276 -156c-83.333 0 -145.166 19.667 -185.499 59s-60.5 85 -60.5 137v203l90 32v-229c0 -24.667 6.16699 -45.167 18.5 -61.5s28.166 -27.833 47.499 -34.5s35.833 -11 49.5 -13s27.167 -3 40.5 -3s26.833 1 40.5 3s30.167 6.33301 49.5 13s35.166 18.167 47.499 34.5
s18.5 36.833 18.5 61.5v533l90 32v-571c0 -52 -20.167 -97.667 -60.5 -137s-102.166 -59 -185.499 -59z" />
    <glyph glyph-name="meem.iso" unicode="&#x645;" horiz-adv-x="605" arabic-form="isolated" 
d="M30 -338l-0.000976562 290c0 92 48.333 138 145 138h15v188c0 91.333 48.667 137 146 137h229v-277c0 -92 -44 -138 -132 -138h-250c-21.333 0 -37.166 -3.83301 -47.499 -11.5s-15.5 -23.5 -15.5 -47.5v-247zM474.999 325l-132.001 -0.000976562
c-21.333 0 -37.166 -4 -47.499 -12s-15.5 -24 -15.5 -48v-175h131c22 0 38.167 3.83301 48.5 11.5s15.5 23.834 15.5 48.501v175z" />
    <glyph glyph-name="noon.iso" unicode="&#x646;" horiz-adv-x="563" arabic-form="isolated" 
d="M276 -146c-83.333 0 -145.168 19.667 -185.501 59s-60.5 85 -60.5 137v193l90 32v-219c0 -70 52 -105 156 -105s156 35 156 105v244l90 32v-282c0 -52 -20.167 -97.667 -60.5 -137s-102.166 -59 -185.499 -59zM275.998 389l-64 64l64 64l64 -64z" />
    <glyph glyph-name="heh.ini" unicode="&#x647;" horiz-adv-x="673" arabic-form="initial" 
d="M0 90l53.999 0.00195312c36 0 68.667 2 98 6c-42 43.333 -63 90.333 -63 141c0 53.333 14 96.166 42 128.499s65.667 48.833 113 49.5l24 76c42 0 84.5 -5.83301 127.5 -17.5s83.167 -28.167 120.5 -49.5s67.666 -49.833 90.999 -85.5s34 -75.167 32 -118.5
c-1.33301 -35.333 -7.16602 -66.5 -17.499 -93.5s-22.5 -48.333 -36.5 -64s-30.167 -28.334 -48.5 -38.001s-35.166 -16.167 -50.499 -19.5s-30.333 -5 -45 -5h-52c-50 -0 -96.333 9.33301 -139 28c-54 -18.667 -119.333 -28 -196 -28h-54v90zM407.999 238.002
c0 -58 -18 -106.668 -54 -146.001c14.667 -1.33301 26.334 -2 35.001 -2h52c22 0 45 10.833 69 32.5s37 55.167 39 100.5c1.33301 40 -15.334 74.667 -50.001 104s-88 50 -160 62c46 -31.333 69 -81.666 69 -150.999zM178.999 239.001c0 -42.667 25.333 -79.668 76 -111.001
c42 24.667 63 61.334 63 110.001c0 58 -24 87 -72 87c-22.667 0 -39.5 -7.83301 -50.5 -23.5s-16.5 -36.5 -16.5 -62.5z" />
    <glyph glyph-name="waw.iso" unicode="&#x648;" horiz-adv-x="446" arabic-form="isolated" 
d="M256 0l-59 0.000976562c-46 0 -85.333 22.167 -118 66.5s-49 91.833 -49 142.5c0 26 2.66699 50.167 8 72.5s14.333 44.166 27 65.499s31.5 38 56.5 50s55.5 18 91.5 18h193v-417c0 -94.667 -47 -168 -141 -220l-103 53c102.667 36 154 91.667 154 167v62zM316 325.001
h-103.001c-62 0 -93 -38.667 -93 -116c0 -29.333 8.83301 -56.5 26.5 -81.5s39.834 -37.5 66.501 -37.5h103v235z" />
    <glyph glyph-name="alefmaksura.iso" unicode="&#x649;" horiz-adv-x="687" arabic-form="isolated" 
d="M663 413l-19.001 -89c-74 4.66699 -133.667 -32.666 -179 -111.999c68 -24.667 116.833 -52 146.5 -82s44.5 -66.667 44.5 -110c0 -50 -14.167 -89.167 -42.5 -117.5s-68.166 -42.5 -119.499 -42.5h-312c-101.333 0 -152 57.667 -152 173v98l90 33v-133
c0 -28.667 3.83301 -49.334 11.5 -62.001s24.834 -19 51.501 -19h311c25.333 0 43.666 6.83301 54.999 20.5s17 30.167 17 49.5c0 50.667 -57 89.334 -171 116.001l-26 90c35.333 66.667 75.833 116.167 121.5 148.5s103.167 45.166 172.5 38.499z" />
    <glyph glyph-name="yeh.iso" unicode="&#x64a;" horiz-adv-x="687" arabic-form="isolated" 
d="M281 -322l-64 64l64 64l64 -64zM409 -322l-64 64l64 64l64 -64zM663 413l-19.001 -89c-74 4.66699 -133.667 -32.666 -179 -111.999c68 -24.667 116.833 -52 146.5 -82s44.5 -66.667 44.5 -110c0 -50 -14.167 -89.167 -42.5 -117.5s-68.166 -42.5 -119.499 -42.5h-312
c-101.333 0 -152 57.667 -152 173v98l90 33v-133c0 -28.667 3.83301 -49.334 11.5 -62.001s24.834 -19 51.501 -19h311c25.333 0 43.666 6.83301 54.999 20.5s17 30.167 17 49.5c0 50.667 -57 89.334 -171 116.001l-26 90c35.333 66.667 75.833 116.167 121.5 148.5
s103.167 45.166 172.5 38.499z" />
    <glyph glyph-name="alefmaddaabove.fin" unicode="&#x622;" horiz-adv-x="213" arabic-form="final" 
d="M-14 611c18.667 16 35.9971 24.833 51.9971 26.5s29.333 -0.5 40 -6.5s24.334 -8.83301 41.001 -8.5s35.334 6.5 56.001 18.5v-50c-16.667 -11.333 -32.167 -17.833 -46.5 -19.5s-26.833 -0.5 -37.5 3.5s-21.167 7.66699 -31.5 11s-21.666 3.33301 -33.999 0
s-25.5 -12 -39.5 -26v51zM39.9971 508l89.999 31.999v-390c0 -23.333 5.33301 -39.166 16 -47.499s26.334 -12.5 47.001 -12.5h29v-90h-37c-96.667 0 -145 46 -145 138v370z" />
    <glyph glyph-name="alefhamzaabove.fin" unicode="&#x623;" horiz-adv-x="213" arabic-form="final" 
d="M40 508l89.999 31.999v-390c0 -23.333 5.33301 -39.166 16 -47.499s26.334 -12.5 47.001 -12.5h29v-90h-37c-96.667 0 -145 46 -145 138v370zM148.999 577.999l-145 0.00195312v50h22c-2.66699 9.33301 -4 16.666 -4 21.999c0 23.333 7.83301 41.166 23.5 53.499
s34.5 18.5 56.5 18.5c17.333 0 34 -3.66699 50 -11l-22 -44c-12 4.66699 -21.667 7 -29 7c-19.333 0 -29 -8 -29 -24c0 -14.667 7 -22 21 -22h56v-50z" />
    <glyph glyph-name="wawhamza.fin" unicode="&#x624;" horiz-adv-x="488" arabic-form="final" 
d="M282 453l-145 0.00195312v50h22c-2.66699 9.33301 -4 16.666 -4 21.999c0 23.333 7.83301 41.166 23.5 53.499s34.5 18.5 56.5 18.5c17.333 0 34 -3.66699 50 -11l-22 -44c-11.333 4.66699 -21 7 -29 7c-19.333 0 -29 -8 -29 -24c0 -14.667 7 -22 21 -22h56v-50z
M265 -221.998l-103 53.001c102.667 36 154 91.667 154 167v2h-119c-46 0 -85.333 22.167 -118 66.5s-49 91.833 -49 142.5c0 26 2.66699 50.167 8 72.5s14.333 44.166 27 65.499s31.5 38 56.5 50s55.5 18 91.5 18h193v-325h86v-90h-86v-2c0 -94.667 -47 -168 -141 -220z
M316 325.003h-103.001c-62 0 -93 -38.667 -93 -116c0 -29.333 8.83301 -56.5 26.5 -81.5s39.834 -37.5 66.501 -37.5h103v235z" />
    <glyph glyph-name="alefhamzabelow.fin" unicode="&#x625;" horiz-adv-x="213" arabic-form="final" 
d="M160 -176l-145 0.00195312v50h22c-2.66699 9.33301 -4 16.666 -4 21.999c0 23.333 7.83301 41.166 23.5 53.499s34.5 18.5 56.5 18.5c17.333 0 34 -3.66699 50 -11l-22 -44c-11.333 4.66699 -21 7 -29 7c-19.333 0 -29 -8 -29 -24c0 -14.667 7 -22 21 -22h56v-50z
M40 579.002l89.999 31.999v-461c0 -23.333 5.33301 -39.166 16 -47.499s26.334 -12.5 47.001 -12.5h29v-90h-37c-96.667 0 -145 46 -145 138v441z" />
    <glyph glyph-name="yehhamza.fin" unicode="&#x626;" horiz-adv-x="727" arabic-form="final" 
d="M157 253l-145 0.00195312v50h22c-2.66699 9.33301 -4 16.666 -4 21.999c0 23.333 7.83301 41.166 23.5 53.499s34.5 18.5 56.5 18.5c17.333 0 34 -3.66699 50 -11l-22 -44c-11.333 4.66699 -21 7 -29 7c-19.333 0 -29 -8 -29 -24c0 -14.667 7 -22 21 -22h56v-50z
M500 243.002l90 31.999v-67c0 -38.667 10.833 -68 32.5 -88s51.167 -30 88.5 -30h26v-90h-28c-47.333 0 -87 9 -119 27v-29c0 -92 -48.667 -138 -146 -138h-269c-96.667 0 -145 46 -145 138v173l90 32v-193c0 -23.333 5.33301 -39.166 16 -47.499s26.334 -12.5 47.001 -12.5
h254c21.333 0 37.166 4 47.499 12s15.5 24 15.5 48v233z" />
    <glyph glyph-name="yehhamza.ini" unicode="&#x626;" horiz-adv-x="244" arabic-form="initial" 
d="M187 415l0.000976562 -277c0 -92 -48.333 -138 -145 -138h-42v90h34c21.333 0 37.166 3.83301 47.499 11.5s15.5 23.5 15.5 47.5v234zM206.001 466l-145 0.00195312v50h22c-2.66699 9.33301 -4 16.666 -4 21.999c0 23.333 7.83301 41.166 23.5 53.499
s34.5 18.5 56.5 18.5c17.333 0 34 -3.66699 50 -11l-22 -44c-12 4.66699 -21.667 7 -29 7c-19.333 0 -29 -8 -29 -24c0 -14.667 7 -22 21 -22h56v-50z" />
    <glyph glyph-name="yehhamza.med" unicode="&#x626;" horiz-adv-x="290" arabic-form="medial" 
d="M190 415l-0.000976562 -272c0 -14.667 5.66699 -27.167 17 -37.5s25 -15.5 41 -15.5h48v-90h-48c-40.667 0 -75 14 -103 42c-29.333 -28 -63.666 -42 -102.999 -42h-42v90h42c15.333 0 28.833 5.16699 40.5 15.5s17.5 22.833 17.5 37.5v240zM208.999 466l-145 0.00195312
v50h22c-2.66699 9.33301 -4 16.666 -4 21.999c0 23.333 7.83301 41.166 23.5 53.499s34.5 18.5 56.5 18.5c17.333 0 34 -3.66699 50 -11l-22 -44c-12 4.66699 -21.667 7 -29 7c-19.333 0 -29 -8 -29 -24c0 -14.667 7 -22 21 -22h56v-50z" />
    <glyph glyph-name="alef.fin" unicode="&#x627;" horiz-adv-x="213" arabic-form="final" 
d="M40 579l89.999 31.999v-461c0 -23.333 5.33301 -39.166 16 -47.499s26.334 -12.5 47.001 -12.5h29v-90h-37c-96.667 0 -145 46 -145 138v441z" />
    <glyph glyph-name="beh.fin" unicode="&#x628;" horiz-adv-x="763" arabic-form="final" 
d="M597 383l90.002 31.998v-262c0 -17.333 5.66699 -32.166 17 -44.499s25.333 -18.5 42 -18.5h24v-90h-24c-36.667 0 -68.334 11.667 -95.001 35c-24.667 -23.333 -61.334 -35 -110.001 -35h-366c-96.667 0 -145 46 -145 138v245l90 32v-265
c0 -23.333 5.33301 -39.166 16 -47.499s26.334 -12.5 47.001 -12.5h351c21.333 0 37.166 4 47.499 12s15.5 24 15.5 48v233zM358.002 -188.002l-64 64l64 64l64 -64z" />
    <glyph glyph-name="beh.ini" unicode="&#x628;" horiz-adv-x="244" arabic-form="initial" 
d="M187 415l0.000976562 -277c0 -92 -48.333 -138 -145 -138h-42v90h34c21.333 0 37.166 3.83301 47.499 11.5s15.5 23.5 15.5 47.5v234zM135.001 -188l-64 64l64 64l64 -64z" />
    <glyph glyph-name="beh.med" unicode="&#x628;" horiz-adv-x="290" arabic-form="medial" 
d="M138 -188l-64 64l64 64l64 -64zM190 415l-0.000976562 -272c0 -14.667 5.66699 -27.167 17 -37.5s25 -15.5 41 -15.5h48v-90h-48c-40.667 0 -75 14 -103 42c-29.333 -28 -63.666 -42 -102.999 -42h-42v90h42c15.333 0 28.833 5.16699 40.5 15.5s17.5 22.833 17.5 37.5
v240z" />
    <glyph glyph-name="tehmarbuta.fin" unicode="&#x629;" horiz-adv-x="496" arabic-form="final" 
d="M196 483l-64 64l64 64l64 -64zM324 483l-64 64l64 64l64 -64zM256 0l-59 0.000976562c-46 0 -85.333 22.167 -118 66.5s-49 91.833 -49 142.5c0 26 2.66699 50.167 8 72.5s14.333 44.166 27 65.499s31.5 38 56.5 50s55.5 18 91.5 18h193v-325h99v-90h-189v60z
M316 325.001h-103.001c-62 0 -93 -38.667 -93 -116c0 -29.333 8.83301 -56.5 26.5 -81.5s39.834 -37.5 66.501 -37.5h103v235z" />
    <glyph glyph-name="teh.fin" unicode="&#x62a;" horiz-adv-x="763" arabic-form="final" 
d="M597 383l90.001 31.998v-267c0 -16 5.83301 -29.667 17.5 -41s25.5 -17 41.5 -17h24v-90h-24c-36.667 0 -68.334 11.667 -95.001 35c-24.667 -23.333 -61.334 -35 -110.001 -35h-366c-96.667 0 -145 46 -145 138v245l90 32v-265c0 -23.333 5.33301 -39.166 16 -47.499
s26.334 -12.5 47.001 -12.5h351c20.667 0 36.167 3.83301 46.5 11.5s15.833 22.834 16.5 45.501v236zM423.001 482.998l-64 64l64 64l64 -64zM295.001 482.998l-64 64l64 64l64 -64z" />
    <glyph glyph-name="teh.ini" unicode="&#x62a;" horiz-adv-x="244" arabic-form="initial" 
d="M64 483l-64 64l64 64l64 -64zM192 483l-64 64l64 64l64 -64zM187 415l0.000976562 -277c0 -92 -48.333 -138 -145 -138h-42v90h34c21.333 0 37.166 3.83301 47.499 11.5s15.5 23.5 15.5 47.5v234z" />
    <glyph glyph-name="teh.med" unicode="&#x62a;" horiz-adv-x="290" arabic-form="medial" 
d="M77 483l-64 64l64 64l64 -64zM205 483l-64 64l64 64l64 -64zM190 415l-0.000976562 -272c0 -14.667 5.66699 -27.167 17 -37.5s25 -15.5 41 -15.5h48v-90h-48c-40.667 0 -75 14 -103 42c-29.333 -28 -63.666 -42 -102.999 -42h-42v90h42
c15.333 0 28.833 5.16699 40.5 15.5s17.5 22.833 17.5 37.5v240z" />
    <glyph glyph-name="theh.fin" unicode="&#x62b;" horiz-adv-x="763" arabic-form="final" 
d="M597 383l90.002 31.999v-267c0 -16 5.83301 -29.667 17.5 -41s25.5 -17 41.5 -17h24v-90h-24c-36.667 0 -68.334 11.667 -95.001 35c-24.667 -23.333 -61.334 -35 -110.001 -35h-366c-96.667 0 -145 46 -145 138v245l90 32v-265c0 -23.333 5.33301 -39.166 16 -47.499
s26.334 -12.5 47.001 -12.5h351c21.333 0 37.166 4 47.499 12s15.5 24 15.5 48v233zM423.002 482.999l-64 64l64 64l64 -64zM295.002 482.999l-64 64l64 64l64 -64zM359.002 590.999l-64 64l64 64l64 -64z" />
    <glyph glyph-name="theh.ini" unicode="&#x62b;" horiz-adv-x="244" arabic-form="initial" 
d="M128 591l-64 64l64 64l64 -64zM64 483l-64 64l64 64l64 -64zM192 483l-64 64l64 64l64 -64zM187 415l0.000976562 -277c0 -92 -48.333 -138 -145 -138h-42v90h34c21.333 0 37.166 3.83301 47.499 11.5s15.5 23.5 15.5 47.5v234z" />
    <glyph glyph-name="theh.med" unicode="&#x62b;" horiz-adv-x="290" arabic-form="medial" 
d="M146 591l-64 64l64 64l64 -64zM82 483l-64 64l64 64l64 -64zM210 483l-64 64l64 64l64 -64zM190 415l-0.000976562 -272c0 -14.667 5.66699 -27.167 17 -37.5s25 -15.5 41 -15.5h48v-90h-48c-40.667 0 -75 14 -103 42c-29.333 -28 -63.666 -42 -102.999 -42h-42v90h42
c15.333 0 28.833 5.16699 40.5 15.5s17.5 22.833 17.5 37.5v240z" />
    <glyph glyph-name="jeem.fin" unicode="&#x62c;" horiz-adv-x="600" arabic-form="final" 
d="M319 -188l-64 64l64 64l64 -64zM30 -126c0 63.333 20.9971 115.169 62.9971 155.502s93 60.5 153 60.5h176c-14 25.333 -29 67.333 -45 126c-5.33301 21.333 -12.333 39.333 -21 54s-17 25.667 -25 33s-19 12.833 -33 16.5s-25.667 5.83398 -35 6.50098s-23.333 1 -42 1
h-67c4 10 9.33301 24.167 16 42.5s12 33.5 16 45.5h65c23.333 0 44.5 -2.33301 63.5 -7s35 -9.83398 48 -15.501s25 -14.5 36 -26.5s19.5 -22 25.5 -30s12.167 -20.333 18.5 -37s10.666 -28.834 12.999 -36.501s5.83301 -20.5 10.5 -38.5c6 -24 10.833 -41.833 14.5 -53.5
s8.83398 -24.834 15.501 -39.501s14.334 -25.167 23.001 -31.5s19 -9.5 31 -9.5h57v-90h-361c-37.333 0 -67.666 -11.5 -90.999 -34.5s-35 -53.5 -35 -91.5c0 -38.667 11.833 -70.667 35.5 -96s53.834 -38 90.501 -38h150l-41 -90h-109c-62 0 -113.5 21 -154.5 63
s-61.5 95.667 -61.5 161z" />
    <glyph glyph-name="jeem.ini" unicode="&#x62c;" horiz-adv-x="511" arabic-form="initial" 
d="M203 -188l-64 64l64 64l64 -64zM480 0l-480 0.000976562v90h352c-14 25.333 -29 67.333 -45 126c-5.33301 21.333 -12.333 39.333 -21 54s-17 25.667 -25 33s-19 12.833 -33 16.5s-25.667 5.83398 -35 6.50098s-23.333 1 -42 1h-67c4 10 9.33301 24.167 16 42.5
s12 33.5 16 45.5h65c23.333 0 44.5 -2.33301 63.5 -7s35 -9.83398 48 -15.501s25 -14.5 36 -26.5s19.5 -22 25.5 -30s12.167 -20.333 18.5 -37s10.666 -28.834 12.999 -36.501s5.83301 -20.5 10.5 -38.5c10.667 -42 21.834 -73.5 33.501 -94.5s28.5 -34.167 50.5 -39.5v-90z
" />
    <glyph glyph-name="jeem.med" unicode="&#x62c;" horiz-adv-x="535" arabic-form="medial" 
d="M203 -188l-64 64l64 64l64 -64zM545 0l-544.998 0.000976562v90h360c-14 25.333 -29 67.333 -45 126c-5.33301 21.333 -12.333 39.333 -21 54s-17 25.667 -25 33s-19 12.833 -33 16.5s-25.667 5.83398 -35 6.50098s-23.333 1 -42 1h-67c4 10 9.33301 24.167 16 42.5
s12 33.5 16 45.5h65c23.333 0 44.5 -2.33301 63.5 -7s35 -9.83398 48 -15.501s25 -14.5 36 -26.5s19.5 -22 25.5 -30s12.167 -20.333 18.5 -37s10.666 -28.834 12.999 -36.501s5.83301 -20.5 10.5 -38.5c11.333 -43.333 23.666 -76.5 36.999 -99.5s31 -34.5 53 -34.5h51v-90
z" />
    <glyph glyph-name="hah.fin" unicode="&#x62d;" horiz-adv-x="600" arabic-form="final" 
d="M30 -126c0 63.333 20.9971 115.169 62.9971 155.502s93 60.5 153 60.5h176c-14 25.333 -29 67.333 -45 126c-5.33301 21.333 -12.333 39.333 -21 54s-17 25.667 -25 33s-19 12.833 -33 16.5s-25.667 5.83398 -35 6.50098s-23.333 1 -42 1h-67
c4 10 9.33301 24.167 16 42.5s12 33.5 16 45.5h65c23.333 0 44.5 -2.33301 63.5 -7s35 -9.83398 48 -15.501s25 -14.5 36 -26.5s19.5 -22 25.5 -30s12.167 -20.333 18.5 -37s10.666 -28.834 12.999 -36.501s5.83301 -20.5 10.5 -38.5c6 -24 10.833 -41.833 14.5 -53.5
s8.83398 -24.834 15.501 -39.501s14.334 -25.167 23.001 -31.5s19 -9.5 31 -9.5h57v-90h-361c-37.333 0 -67.666 -11.5 -90.999 -34.5s-35 -53.5 -35 -91.5c0 -38.667 11.833 -70.667 35.5 -96s53.834 -38 90.501 -38h150l-41 -90h-109c-62 0 -113.5 21 -154.5 63
s-61.5 95.667 -61.5 161z" />
    <glyph glyph-name="hah.ini" unicode="&#x62d;" horiz-adv-x="511" arabic-form="initial" 
d="M480 0l-480 0.000976562v90h352c-14 25.333 -29 67.333 -45 126c-5.33301 21.333 -12.333 39.333 -21 54s-17 25.667 -25 33s-19 12.833 -33 16.5s-25.667 5.83398 -35 6.50098s-23.333 1 -42 1h-67c4 10 9.33301 24.167 16 42.5s12 33.5 16 45.5h65
c23.333 0 44.5 -2.33301 63.5 -7s35 -9.83398 48 -15.501s25 -14.5 36 -26.5s19.5 -22 25.5 -30s12.167 -20.333 18.5 -37s10.666 -28.834 12.999 -36.501s5.83301 -20.5 10.5 -38.5c10.667 -42 21.834 -73.5 33.501 -94.5s28.5 -34.167 50.5 -39.5v-90z" />
    <glyph glyph-name="hah.med" unicode="&#x62d;" horiz-adv-x="535" arabic-form="medial" 
d="M545 0l-544.998 0.000976562v90h360c-14 25.333 -29 67.333 -45 126c-5.33301 21.333 -12.333 39.333 -21 54s-17 25.667 -25 33s-19 12.833 -33 16.5s-25.667 5.83398 -35 6.50098s-23.333 1 -42 1h-67c4 10 9.33301 24.167 16 42.5s12 33.5 16 45.5h65
c23.333 0 44.5 -2.33301 63.5 -7s35 -9.83398 48 -15.501s25 -14.5 36 -26.5s19.5 -22 25.5 -30s12.167 -20.333 18.5 -37s10.666 -28.834 12.999 -36.501s5.83301 -20.5 10.5 -38.5c11.333 -43.333 23.666 -76.5 36.999 -99.5s31 -34.5 53 -34.5h51v-90z" />
    <glyph glyph-name="khah.fin" unicode="&#x62e;" horiz-adv-x="600" arabic-form="final" 
d="M297 476l-64 64l64 64l64 -64zM30 -126c0 63.333 20.9971 115.169 62.9971 155.502s93 60.5 153 60.5h176c-14 25.333 -29 67.333 -45 126c-5.33301 21.333 -12.333 39.333 -21 54s-17 25.667 -25 33s-19 12.833 -33 16.5s-25.667 5.83398 -35 6.50098s-23.333 1 -42 1
h-67c4 10 9.33301 24.167 16 42.5s12 33.5 16 45.5h65c23.333 0 44.5 -2.33301 63.5 -7s35 -9.83398 48 -15.501s25 -14.5 36 -26.5s19.5 -22 25.5 -30s12.167 -20.333 18.5 -37s10.666 -28.834 12.999 -36.501s5.83301 -20.5 10.5 -38.5c6 -24 10.833 -41.833 14.5 -53.5
s8.83398 -24.834 15.501 -39.501s14.334 -25.167 23.001 -31.5s19 -9.5 31 -9.5h57v-90h-361c-37.333 0 -67.666 -11.5 -90.999 -34.5s-35 -53.5 -35 -91.5c0 -38.667 11.833 -70.667 35.5 -96s53.834 -38 90.501 -38h150l-41 -90h-109c-62 0 -113.5 21 -154.5 63
s-61.5 95.667 -61.5 161z" />
    <glyph glyph-name="khah.ini" unicode="&#x62e;" horiz-adv-x="511" arabic-form="initial" 
d="M201 476l-64 64l64 64l64 -64zM480 0l-480 0.000976562v90h352c-14 25.333 -29 67.333 -45 126c-5.33301 21.333 -12.333 39.333 -21 54s-17 25.667 -25 33s-19 12.833 -33 16.5s-25.667 5.83398 -35 6.50098s-23.333 1 -42 1h-67c4 10 9.33301 24.167 16 42.5
s12 33.5 16 45.5h65c23.333 0 44.5 -2.33301 63.5 -7s35 -9.83398 48 -15.501s25 -14.5 36 -26.5s19.5 -22 25.5 -30s12.167 -20.333 18.5 -37s10.666 -28.834 12.999 -36.501s5.83301 -20.5 10.5 -38.5c10.667 -42 21.834 -73.5 33.501 -94.5s28.5 -34.167 50.5 -39.5v-90z
" />
    <glyph glyph-name="khah.med" unicode="&#x62e;" horiz-adv-x="535" arabic-form="medial" 
d="M201 476l-64 64l64 64l64 -64zM545 0l-544.998 0.000976562v90h360c-14 25.333 -29 67.333 -45 126c-5.33301 21.333 -12.333 39.333 -21 54s-17 25.667 -25 33s-19 12.833 -33 16.5s-25.667 5.83398 -35 6.50098s-23.333 1 -42 1h-67c4 10 9.33301 24.167 16 42.5
s12 33.5 16 45.5h65c23.333 0 44.5 -2.33301 63.5 -7s35 -9.83398 48 -15.501s25 -14.5 36 -26.5s19.5 -22 25.5 -30s12.167 -20.333 18.5 -37s10.666 -28.834 12.999 -36.501s5.83301 -20.5 10.5 -38.5c11.333 -43.333 23.666 -76.5 36.999 -99.5s31 -34.5 53 -34.5h51v-90
z" />
    <glyph glyph-name="dal.fin" unicode="&#x62f;" horiz-adv-x="478" arabic-form="final" 
d="M484 0l-454 0.000976562v90h286v110c0 45.333 -9.5 77.5 -28.5 96.5s-57.833 28.5 -116.5 28.5h-99v90h100c32 0 60.5 -2.16699 85.5 -6.5s45.833 -9.83301 62.5 -16.5s30.667 -15.834 42 -27.501s20 -22.667 26 -33s10.5 -24 13.5 -41s4.83301 -31.5 5.5 -43.5
s1 -27.667 1 -47v-110h76v-90z" />
    <glyph glyph-name="thal.fin" unicode="&#x630;" horiz-adv-x="478" arabic-form="final" 
d="M171 476l-64 64l64 64l64 -64zM484 0l-454 0.000976562v90h286v110c0 45.333 -9.5 77.5 -28.5 96.5s-57.833 28.5 -116.5 28.5h-99v90h100c32 0 60.5 -2.16699 85.5 -6.5s45.833 -9.83301 62.5 -16.5s30.667 -15.834 42 -27.501s20 -22.667 26 -33s10.5 -24 13.5 -41
s4.83301 -31.5 5.5 -43.5s1 -27.667 1 -47v-110h76v-90z" />
    <glyph glyph-name="reh.fin" unicode="&#x631;" horiz-adv-x="250" arabic-form="final" 
d="M80 2v381l90 32v-325h84v-90h-84v-18c0 -34 -8 -69 -24 -105s-43.333 -66.333 -82 -91l-87 45c19.333 8 35.833 18.167 49.5 30.5s24 24 31 35s12.167 24 15.5 39s5.33301 26.667 6 35s1 18.833 1 31.5z" />
    <glyph glyph-name="zain.fin" unicode="&#x632;" horiz-adv-x="250" arabic-form="final" 
d="M80 2v381l90 32v-325h84v-90h-84v-18c0 -34 -8 -69 -24 -105s-43.333 -66.333 -82 -91l-87 45c19.333 8 35.833 18.167 49.5 30.5s24 24 31 35s12.167 24 15.5 39s5.33301 26.667 6 35s1 18.833 1 31.5zM125 476l-64 64l64 64l64 -64z" />
    <glyph glyph-name="seen.fin" unicode="&#x633;" horiz-adv-x="1037" arabic-form="final" 
d="M958 415l-0.00292969 -272c0 -14.667 5.66699 -27.167 17 -37.5s25 -15.5 41 -15.5h30v-90h-30c-40.667 0 -75 14 -103 42c-29.333 -28 -63.666 -42 -102.999 -42h-12c-40.667 0 -75 14 -103 42c-29.333 -28 -63.666 -42 -102.999 -42h-12c-23.333 -0 -44 4.33301 -62 13
c-8.66699 -44.667 -33 -82.334 -73 -113.001s-96.333 -46 -169 -46c-83.333 0 -145.166 19.667 -185.499 59s-60.5 85 -60.5 137v193l90 32v-219c0 -70 52 -105 156 -105s156 35 156 105v327l90 32v-277c0 -13.333 5.83301 -24.666 17.5 -33.999s25.167 -14 40.5 -14h12
c15.333 0 28.833 5.16699 40.5 15.5s17.5 22.833 17.5 37.5v240l90 32v-272c0 -14.667 5.66699 -27.167 17 -37.5s25 -15.5 41 -15.5h12c15.333 0 28.833 5.16699 40.5 15.5s17.5 22.833 17.5 37.5v240z" />
    <glyph glyph-name="seen.ini" unicode="&#x633;" horiz-adv-x="672" arabic-form="initial" 
d="M614 415l-0.00195312 -272c0 -36 -13.667 -68.833 -41 -98.5s-63 -44.5 -107 -44.5h-12c-40.667 0 -75 14 -103 42c-29.333 -28 -63.666 -42 -102.999 -42h-12c-40.667 0 -75 14 -103 42c-29.333 -28 -63.666 -42 -102.999 -42h-30v90h30
c15.333 0 28.833 5.16699 40.5 15.5s17.5 22.833 17.5 37.5v240l90 32v-272c0 -14.667 5.66699 -27.167 17 -37.5s25 -15.5 41 -15.5h12c15.333 0 28.833 5.16699 40.5 15.5s17.5 22.833 17.5 37.5v240l90 32v-272c0 -14.667 5.66699 -27.167 17 -37.5s25 -15.5 41 -15.5h12
c15.333 0 28.833 5.16699 40.5 15.5s17.5 22.833 17.5 37.5v240z" />
    <glyph glyph-name="seen.med" unicode="&#x633;" horiz-adv-x="672" arabic-form="medial" 
d="M599 415l-0.00292969 -272c0 -14.667 5.66699 -27.167 17 -37.5s25 -15.5 41 -15.5h20v-90h-20c-40.667 0 -75 14 -103 42c-29.333 -28 -63.666 -42 -102.999 -42h-12c-40.667 0 -75 14 -103 42c-29.333 -28 -63.666 -42 -102.999 -42h-12c-40.667 0 -75 14 -103 42
c-29.333 -28 -63.666 -42 -102.999 -42h-15v90h15c15.333 0 28.833 5.16699 40.5 15.5s17.5 22.833 17.5 37.5v240l90 32v-272c0 -14.667 5.66699 -27.167 17 -37.5s25 -15.5 41 -15.5h12c15.333 0 28.833 5.16699 40.5 15.5s17.5 22.833 17.5 37.5v240l90 32v-272
c0 -14.667 5.66699 -27.167 17 -37.5s25 -15.5 41 -15.5h12c15.333 0 28.833 5.16699 40.5 15.5s17.5 22.833 17.5 37.5v240z" />
    <glyph glyph-name="sheen.fin" unicode="&#x634;" horiz-adv-x="1037" arabic-form="final" 
d="M695 591l-64 64l64 64l64 -64zM631 483l-64 64l64 64l64 -64zM759 483l-64 64l64 64l64 -64zM958 415l-0.00292969 -272c0 -14.667 5.66699 -27.167 17 -37.5s25 -15.5 41 -15.5h30v-90h-30c-40.667 0 -75 14 -103 42c-29.333 -28 -63.666 -42 -102.999 -42h-12
c-40.667 0 -75 14 -103 42c-29.333 -28 -63.666 -42 -102.999 -42h-12c-23.333 -0 -44 4.33301 -62 13c-8.66699 -44.667 -33 -82.334 -73 -113.001s-96.333 -46 -169 -46c-83.333 0 -145.166 19.667 -185.499 59s-60.5 85 -60.5 137v193l90 32v-219c0 -70 52 -105 156 -105
s156 35 156 105v327l90 32v-277c0 -13.333 5.83301 -24.666 17.5 -33.999s25.167 -14 40.5 -14h12c15.333 0 28.833 5.16699 40.5 15.5s17.5 22.833 17.5 37.5v240l90 32v-272c0 -14.667 5.66699 -27.167 17 -37.5s25 -15.5 41 -15.5h12c15.333 0 28.833 5.16699 40.5 15.5
s17.5 22.833 17.5 37.5v240z" />
    <glyph glyph-name="sheen.ini" unicode="&#x634;" horiz-adv-x="672" arabic-form="initial" 
d="M351 591l-64 64l64 64l64 -64zM287 483l-64 64l64 64l64 -64zM415 483l-64 64l64 64l64 -64zM614 415l-0.00195312 -272c0 -36 -13.667 -68.833 -41 -98.5s-63 -44.5 -107 -44.5h-12c-40.667 0 -75 14 -103 42c-29.333 -28 -63.666 -42 -102.999 -42h-12
c-40.667 0 -75 14 -103 42c-29.333 -28 -63.666 -42 -102.999 -42h-30v90h30c15.333 0 28.833 5.16699 40.5 15.5s17.5 22.833 17.5 37.5v240l90 32v-272c0 -14.667 5.66699 -27.167 17 -37.5s25 -15.5 41 -15.5h12c15.333 0 28.833 5.16699 40.5 15.5
s17.5 22.833 17.5 37.5v240l90 32v-272c0 -14.667 5.66699 -27.167 17 -37.5s25 -15.5 41 -15.5h12c15.333 0 28.833 5.16699 40.5 15.5s17.5 22.833 17.5 37.5v240z" />
    <glyph glyph-name="sheen.med" unicode="&#x634;" horiz-adv-x="672" arabic-form="medial" 
d="M336 591l-64 64l64 64l64 -64zM272 483l-64 64l64 64l64 -64zM400 483l-64 64l64 64l64 -64zM599 415l-0.00292969 -272c0 -14.667 5.66699 -27.167 17 -37.5s25 -15.5 41 -15.5h20v-90h-20c-40.667 0 -75 14 -103 42c-29.333 -28 -63.666 -42 -102.999 -42h-12
c-40.667 0 -75 14 -103 42c-29.333 -28 -63.666 -42 -102.999 -42h-12c-40.667 0 -75 14 -103 42c-29.333 -28 -63.666 -42 -102.999 -42h-15v90h15c15.333 0 28.833 5.16699 40.5 15.5s17.5 22.833 17.5 37.5v240l90 32v-272c0 -14.667 5.66699 -27.167 17 -37.5
s25 -15.5 41 -15.5h12c15.333 0 28.833 5.16699 40.5 15.5s17.5 22.833 17.5 37.5v240l90 32v-272c0 -14.667 5.66699 -27.167 17 -37.5s25 -15.5 41 -15.5h12c15.333 0 28.833 5.16699 40.5 15.5s17.5 22.833 17.5 37.5v240z" />
    <glyph glyph-name="sad.fin" unicode="&#x635;" horiz-adv-x="999" arabic-form="final" 
d="M276 -146c-83.333 0 -145.167 19.667 -185.5 59s-60.5 85 -60.5 137v193l90 32v-219c0 -70 52 -105 156 -105s156 35 156 105v359h90v-88c102.667 59.333 179 89 229 89c14.667 0 28.667 -1.33301 42 -4s27.833 -8.16699 43.5 -16.5s29.167 -19.333 40.5 -33
s20.833 -32.5 28.5 -56.5s11.5 -51.667 11.5 -83v-85c0.666992 -14 6.66699 -25.5 18 -34.5s24.666 -13.5 39.999 -13.5h30v-90h-30c-36.667 -0 -68.334 11.333 -95.001 34c-24 -22.667 -60 -34 -108 -34h-257c-11.333 -42 -36.666 -76.833 -75.999 -104.5
s-93.666 -41.5 -162.999 -41.5zM750.999 326c-25.333 0 -61.833 -12 -109.5 -36s-87.5 -47.667 -119.5 -71v-129h250c36.667 0 55 16 55 48v85c0 38.667 -7.66699 65.5 -23 80.5s-33 22.5 -53 22.5z" />
    <glyph glyph-name="sad.ini" unicode="&#x635;" horiz-adv-x="630" arabic-form="initial" 
d="M195 415v-88c102.667 59.333 179 89 229 89c14.667 0 28.667 -1.33301 42 -4s27.833 -8.16699 43.5 -16.5s29.167 -19.333 40.5 -33s20.833 -32.5 28.5 -56.5s11.5 -51.667 11.5 -83v-85c0 -92 -48.333 -138 -145 -138h-445v90h105v325h90zM424 326
c-25.333 0 -61.833 -12 -109.5 -36s-87.5 -47.667 -119.5 -71v-129h250c36.667 0 55 16 55 48v85c0 38.667 -7.66699 65.5 -23 80.5s-33 22.5 -53 22.5z" />
    <glyph glyph-name="sad.med" unicode="&#x635;" horiz-adv-x="620" arabic-form="medial" 
d="M160 415l0.00195312 -88c102.667 59.333 179 89 229 89c14.667 0 28.667 -1.33301 42 -4s27.833 -8.16699 43.5 -16.5s29.167 -19.333 40.5 -33s20.833 -32.5 28.5 -56.5s11.5 -51.667 11.5 -83v-85c0.666992 -14 6.66699 -25.5 18 -34.5s24.666 -13.5 39.999 -13.5h14
v-90h-14c-36.667 -0 -68.334 11.333 -95.001 34c-24 -22.667 -60 -34 -108 -34h-410v90h70v325h90zM389.002 326c-25.333 0 -61.833 -12 -109.5 -36s-87.5 -47.667 -119.5 -71v-129h250c36.667 0 55 16 55 48v85c0 38.667 -7.66699 65.5 -23 80.5s-33 22.5 -53 22.5z" />
    <glyph glyph-name="dad.fin" unicode="&#x636;" horiz-adv-x="999" arabic-form="final" 
d="M726 476l-64 64l64 64l64 -64zM276 -146c-83.333 0 -145.167 19.667 -185.5 59s-60.5 85 -60.5 137v193l90 32v-219c0 -70 52 -105 156 -105s156 35 156 105v359h90v-88c102.667 59.333 179 89 229 89c14.667 0 28.667 -1.33301 42 -4s27.833 -8.16699 43.5 -16.5
s29.167 -19.333 40.5 -33s20.833 -32.5 28.5 -56.5s11.5 -51.667 11.5 -83v-85c0.666992 -14 6.66699 -25.5 18 -34.5s24.666 -13.5 39.999 -13.5h30v-90h-30c-36.667 -0 -68.334 11.333 -95.001 34c-24 -22.667 -60 -34 -108 -34h-257
c-11.333 -42 -36.666 -76.833 -75.999 -104.5s-93.666 -41.5 -162.999 -41.5zM750.999 326c-25.333 0 -61.833 -12 -109.5 -36s-87.5 -47.667 -119.5 -71v-129h250c36.667 0 55 16 55 48v85c0 38.667 -7.66699 65.5 -23 80.5s-33 22.5 -53 22.5z" />
    <glyph glyph-name="dad.ini" unicode="&#x636;" horiz-adv-x="630" arabic-form="initial" 
d="M374 476l-64 64l64 64l64 -64zM195 415v-88c102.667 59.333 179 89 229 89c14.667 0 28.667 -1.33301 42 -4s27.833 -8.16699 43.5 -16.5s29.167 -19.333 40.5 -33s20.833 -32.5 28.5 -56.5s11.5 -51.667 11.5 -83v-85c0 -92 -48.333 -138 -145 -138h-445v90h105v325h90z
M424 326c-25.333 0 -61.833 -12 -109.5 -36s-87.5 -47.667 -119.5 -71v-129h250c36.667 0 55 16 55 48v85c0 38.667 -7.66699 65.5 -23 80.5s-33 22.5 -53 22.5z" />
    <glyph glyph-name="dad.med" unicode="&#x636;" horiz-adv-x="620" arabic-form="medial" 
d="M339 476l-64 64l64 64l64 -64zM160 415l0.00195312 -88c102.667 59.333 179 89 229 89c14.667 0 28.667 -1.33301 42 -4s27.833 -8.16699 43.5 -16.5s29.167 -19.333 40.5 -33s20.833 -32.5 28.5 -56.5s11.5 -51.667 11.5 -83v-85c0.666992 -14 6.66699 -25.5 18 -34.5
s24.666 -13.5 39.999 -13.5h14v-90h-14c-36.667 -0 -68.334 11.333 -95.001 34c-24 -22.667 -60 -34 -108 -34h-410v90h70v325h90zM389.002 326c-25.333 0 -61.833 -12 -109.5 -36s-87.5 -47.667 -119.5 -71v-129h250c36.667 0 55 16 55 48v85
c0 38.667 -7.66699 65.5 -23 80.5s-33 22.5 -53 22.5z" />
    <glyph glyph-name="tah.fin" unicode="&#x637;" horiz-adv-x="693" arabic-form="final" 
d="M124 537l90.001 32v-242c102.667 59.333 179 89 229 89c14.667 0 28.667 -1.33301 42 -4s27.833 -8.16699 43.5 -16.5s29.167 -19.333 40.5 -33s20.833 -32.5 28.5 -56.5s11.5 -51.667 11.5 -83v-80c0 -14.667 5.66699 -27.167 17 -37.5s25 -15.5 41 -15.5h30v-90h-30
c-36.667 -0 -68.334 11.333 -95.001 34c-24 -22.667 -60 -34 -108 -34h-250v-41l-90 -33v74h-94v90h94v447zM443.001 326c-25.333 0 -61.833 -12 -109.5 -36s-87.5 -47.667 -119.5 -71v-129h250c36.667 0 55 16 55 48v85c0 38.667 -7.66699 65.5 -23 80.5s-33 22.5 -53 22.5
z" />
    <glyph glyph-name="tah.ini" unicode="&#x637;" horiz-adv-x="619" arabic-form="initial" 
d="M94 537l90 32v-242c102.667 59.333 179 89 229 89c14.667 0 28.667 -1.33301 42 -4s27.833 -8.16699 43.5 -16.5s29.167 -19.333 40.5 -33s20.833 -32.5 28.5 -56.5s11.5 -51.667 11.5 -83v-85c0 -92 -48.333 -138 -145 -138h-250v-41l-90 -33v74h-94v90h94v447zM413 326
c-25.333 0 -61.833 -12 -109.5 -36s-87.5 -47.667 -119.5 -71v-129h250c36.667 0 55 16 55 48v85c0 38.667 -7.66699 65.5 -23 80.5s-33 22.5 -53 22.5z" />
    <glyph glyph-name="tah.med" unicode="&#x637;" horiz-adv-x="638" arabic-form="medial" 
d="M84 537l90.001 32v-242c102.667 59.333 179 89 229 89c14.667 0 28.667 -1.33301 42 -4s27.833 -8.16699 43.5 -16.5s29.167 -19.333 40.5 -33s20.833 -32.5 28.5 -56.5s11.5 -51.667 11.5 -83v-80c0 -14.667 5.66699 -27.167 17 -37.5s25 -15.5 41 -15.5h18v-90h-18
c-36.667 -0 -68.334 11.333 -95.001 34c-24 -22.667 -60 -34 -108 -34h-250v-41l-90 -33v74h-84v90h84v447zM403.001 326c-25.333 0 -61.833 -12 -109.5 -36s-87.5 -47.667 -119.5 -71v-129h250c36.667 0 55 16 55 48v85c0 38.667 -7.66699 65.5 -23 80.5s-33 22.5 -53 22.5
z" />
    <glyph glyph-name="zah.fin" unicode="&#x638;" horiz-adv-x="693" arabic-form="final" 
d="M418 476l-64 64l64 64l64 -64zM124 537l90.001 32v-242c102.667 59.333 179 89 229 89c14.667 0 28.667 -1.33301 42 -4s27.833 -8.16699 43.5 -16.5s29.167 -19.333 40.5 -33s20.833 -32.5 28.5 -56.5s11.5 -51.667 11.5 -83v-80c0 -14.667 5.66699 -27.167 17 -37.5
s25 -15.5 41 -15.5h30v-90h-30c-36.667 -0 -68.334 11.333 -95.001 34c-24 -22.667 -60 -34 -108 -34h-250v-41l-90 -33v74h-94v90h94v447zM443.001 326c-25.333 0 -61.833 -12 -109.5 -36s-87.5 -47.667 -119.5 -71v-129h250c36.667 0 55 16 55 48v85
c0 38.667 -7.66699 65.5 -23 80.5s-33 22.5 -53 22.5z" />
    <glyph glyph-name="zah.ini" unicode="&#x638;" horiz-adv-x="619" arabic-form="initial" 
d="M388 476l-64 64l64 64l64 -64zM94 537l90 32v-242c102.667 59.333 179 89 229 89c14.667 0 28.667 -1.33301 42 -4s27.833 -8.16699 43.5 -16.5s29.167 -19.333 40.5 -33s20.833 -32.5 28.5 -56.5s11.5 -51.667 11.5 -83v-85c0 -92 -48.333 -138 -145 -138h-250v-41
l-90 -33v74h-94v90h94v447zM413 326c-25.333 0 -61.833 -12 -109.5 -36s-87.5 -47.667 -119.5 -71v-129h250c36.667 0 55 16 55 48v85c0 38.667 -7.66699 65.5 -23 80.5s-33 22.5 -53 22.5z" />
    <glyph glyph-name="zah.med" unicode="&#x638;" horiz-adv-x="638" arabic-form="medial" 
d="M388 476l-64 64l64 64l64 -64zM84 537l90.001 32v-242c102.667 59.333 179 89 229 89c14.667 0 28.667 -1.33301 42 -4s27.833 -8.16699 43.5 -16.5s29.167 -19.333 40.5 -33s20.833 -32.5 28.5 -56.5s11.5 -51.667 11.5 -83v-80c0 -14.667 5.66699 -27.167 17 -37.5
s25 -15.5 41 -15.5h18v-90h-18c-36.667 -0 -68.334 11.333 -95.001 34c-24 -22.667 -60 -34 -108 -34h-250v-41l-90 -33v74h-84v90h84v447zM403.001 326c-25.333 0 -61.833 -12 -109.5 -36s-87.5 -47.667 -119.5 -71v-129h250c36.667 0 55 16 55 48v85
c0 38.667 -7.66699 65.5 -23 80.5s-33 22.5 -53 22.5z" />
    <glyph glyph-name="ain.fin" unicode="&#x639;" horiz-adv-x="569" arabic-form="final" 
d="M119 -126c0 -38.667 11.832 -70.665 35.499 -95.998s53.834 -38 90.501 -38h150l-41 -90h-109c-62 0 -113.5 21.167 -154.5 63.5s-61.5 96.166 -61.5 161.499c0 55.333 14.167 99.833 42.5 133.5s67.833 63.167 118.5 88.5c-56.667 52.667 -95.667 125.334 -117 218.001
l62 79c54.667 26.667 110 40 166 40c18.667 0 35.167 -0.5 49.5 -1.5s32 -4.5 53 -10.5s38.333 -14 52 -24s25.667 -25.333 36 -46s15.5 -45 15.5 -73c0 -72.667 -38.333 -133.667 -115 -183c24 -4 51 -6 81 -6h104v-90h-99c-76 0 -141.667 12.333 -197 37
c-26 -12.667 -46.833 -23.334 -62.5 -32.001s-32.167 -19.834 -49.5 -33.501s-30 -28.5 -38 -44.5s-12 -33.667 -12 -53zM167.999 306.002c32.667 -79.333 70.333 -135 113 -167c44.667 20.667 78.667 42 102 64s35 50.333 35 85c0 37.333 -39 56 -117 56
c-22.667 0 -45 -3.16699 -67 -9.5s-38.667 -12.5 -50 -18.5z" />
    <glyph glyph-name="ain.ini" unicode="&#x639;" horiz-adv-x="479" arabic-form="initial" 
d="M0 0v89.999h115c-16 34 -24 74.333 -24 121c0 52 17.167 99 51.5 141s78.166 63 131.499 63h101l41 -90h-142c-27.333 0 -49.666 -11.667 -66.999 -35s-26 -49.666 -26 -78.999c0 -80.667 31 -121 93 -121h165v-90h-439z" />
    <glyph glyph-name="ain.med" unicode="&#x639;" horiz-adv-x="498" arabic-form="medial" 
d="M447 278c0 -75.333 -30.334 -136.668 -91.001 -184.001c19.333 -2.66699 44 -4 74 -4h75v-90h-70c-72.667 0 -136.334 12 -191.001 36c-67.333 -24 -142.333 -36 -225 -36h-19v90h30c41.333 0 80 3 116 9c-55.333 51.333 -94 123 -116 215l62 79
c61.333 27.333 114.333 41 159 41c18.667 0 34.834 -0.5 48.501 -1.5s30.5 -4.5 50.5 -10.5s36.333 -14.167 49 -24.5s23.834 -25.666 33.501 -45.999s14.5 -44.833 14.5 -73.5zM124.999 304.998c34 -84.667 76 -142.666 126 -173.999c71.333 35.333 107 87 107 155
c0 20 -8.33301 34.667 -25 44s-44 14 -82 14c-22.667 0 -44.5 -3.33301 -65.5 -10s-36.167 -13.334 -45.5 -20.001z" />
    <glyph glyph-name="ghain.fin" unicode="&#x63a;" horiz-adv-x="569" arabic-form="final" 
d="M325 476l-64 64l64 64l64 -64zM119 -126c0 -38.667 11.832 -70.665 35.499 -95.998s53.834 -38 90.501 -38h150l-41 -90h-109c-62 0 -113.5 21.167 -154.5 63.5s-61.5 96.166 -61.5 161.499c0 55.333 14.167 99.833 42.5 133.5s67.833 63.167 118.5 88.5
c-56.667 52.667 -95.667 125.334 -117 218.001l62 79c54.667 26.667 110 40 166 40c18.667 0 35.167 -0.5 49.5 -1.5s32 -4.5 53 -10.5s38.333 -14 52 -24s25.667 -25.333 36 -46s15.5 -45 15.5 -73c0 -72.667 -38.333 -133.667 -115 -183c24 -4 51 -6 81 -6h104v-90h-99
c-76 0 -141.667 12.333 -197 37c-26 -12.667 -46.833 -23.334 -62.5 -32.001s-32.167 -19.834 -49.5 -33.501s-30 -28.5 -38 -44.5s-12 -33.667 -12 -53zM167.999 306.002c32.667 -79.333 70.333 -135 113 -167c44.667 20.667 78.667 42 102 64s35 50.333 35 85
c0 37.333 -39 56 -117 56c-22.667 0 -45 -3.16699 -67 -9.5s-38.667 -12.5 -50 -18.5z" />
    <glyph glyph-name="ghain.ini" unicode="&#x63a;" horiz-adv-x="479" arabic-form="initial" 
d="M311 476l-64 64l64 64l64 -64zM0 0v89.999h115c-16 34 -24 74.333 -24 121c0 52 17.167 99 51.5 141s78.166 63 131.499 63h101l41 -90h-142c-27.333 0 -49.666 -11.667 -66.999 -35s-26 -49.666 -26 -78.999c0 -80.667 31 -121 93 -121h165v-90h-439z" />
    <glyph glyph-name="ghain.med" unicode="&#x63a;" horiz-adv-x="498" arabic-form="medial" 
d="M447 278c0 -75.333 -30.334 -136.668 -91.001 -184.001c19.333 -2.66699 44 -4 74 -4h75v-90h-70c-72.667 0 -136.334 12 -191.001 36c-67.333 -24 -142.333 -36 -225 -36h-19v90h30c41.333 0 80 3 116 9c-55.333 51.333 -94 123 -116 215l62 79
c61.333 27.333 114.333 41 159 41c18.667 0 34.834 -0.5 48.501 -1.5s30.5 -4.5 50.5 -10.5s36.333 -14.167 49 -24.5s23.834 -25.666 33.501 -45.999s14.5 -44.833 14.5 -73.5zM124.999 304.998c34 -84.667 76 -142.666 126 -173.999c71.333 35.333 107 87 107 155
c0 20 -8.33301 34.667 -25 44s-44 14 -82 14c-22.667 0 -44.5 -3.33301 -65.5 -10s-36.167 -13.334 -45.5 -20.001zM253.999 475.999l-64 64l64 64l64 -64z" />
    <glyph glyph-name="feh.fin" unicode="&#x641;" horiz-adv-x="946" arabic-form="final" 
d="M868 415l-0.000976562 -272.001c0 -14.667 5.66699 -27.167 17 -37.5s25 -15.5 41 -15.5h27v-90h-27c-36.667 0 -68 11 -94 33c-20.667 -22 -52.667 -33 -96 -33h-561c-96.667 0 -145 46 -145 138v245l90 32v-265c0 -23.333 5.33301 -39.166 16 -47.499
s26.334 -12.5 47.001 -12.5h310v188c0 91.333 48.667 137 146 137h229zM777.999 324.999l-132.001 -0.000976562c-21.333 0 -37.166 -4 -47.499 -12s-15.5 -24 -15.5 -48v-175h131c22 0 38.167 3.83301 48.5 11.5s15.5 23.834 15.5 48.501v175zM689.998 475.998l-64 64
l64 64l64 -64z" />
    <glyph glyph-name="feh.ini" unicode="&#x641;" horiz-adv-x="525" arabic-form="initial" 
d="M475 415v-277c0 -92 -44 -138 -132 -138h-343v90h100v188c0 91.333 48.667 137 146 137h229zM385 325l-132.001 -0.000976562c-21.333 0 -37.166 -4 -47.499 -12s-15.5 -24 -15.5 -48v-175h131c22 0 38.167 3.83301 48.5 11.5s15.5 23.834 15.5 48.501v175z
M296.999 475.999l-64 64l64 64l64 -64z" />
    <glyph glyph-name="feh.med" unicode="&#x641;" horiz-adv-x="535" arabic-form="medial" 
d="M365 90l-0.00195312 175c0 24 -5.16699 40 -15.5 48s-26.166 12 -47.499 12h-69c-21.333 0 -37.166 -4 -47.499 -12s-15.5 -24 -15.5 -48v-175h195zM267.998 476l-64 64l64 64l64 -64zM544.998 0h-545v90h80v188c0 91.333 48.667 137 146 137h83
c97.333 0 146 -45.667 146 -137v-188h90v-90z" />
    <glyph glyph-name="qaf.fin" unicode="&#x642;" horiz-adv-x="802" arabic-form="final" 
d="M626 483l-64 64l64 64l64 -64zM498 483l-64 64l64 64l64 -64zM642 0h-119c-46 0 -85.333 22.167 -118 66.5s-49 91.833 -49 142.5c0 26 2.66699 50.167 8 72.5s14.333 44.166 27 65.499s31.5 38 56.5 50s55.5 18 91.5 18h193v-325h81v-90h-81v-63
c0 -92 -48.667 -138 -146 -138h-411c-96.667 0 -145 46 -145 138v245l90 32v-265c0 -23.333 5.33301 -39.166 16 -47.499s26.334 -12.5 47.001 -12.5h396c21.333 0 37.166 4 47.499 12s15.5 24 15.5 48v51zM642 325h-103.001c-62 0 -93 -38.667 -93 -116
c0 -29.333 8.83301 -56.5 26.5 -81.5s39.834 -37.5 66.501 -37.5h103v235z" />
    <glyph glyph-name="qaf.ini" unicode="&#x642;" horiz-adv-x="525" arabic-form="initial" 
d="M475 415v-277c0 -92 -44 -138 -132 -138h-343v90h100v188c0 91.333 48.667 137 146 137h229zM385 325l-132.001 -0.000976562c-21.333 0 -37.166 -4 -47.499 -12s-15.5 -24 -15.5 -48v-175h131c22 0 38.167 3.83301 48.5 11.5s15.5 23.834 15.5 48.501v175z
M232.999 475.999l-64 64l64 64l64 -64zM360.999 475.999l-64 64l64 64l64 -64z" />
    <glyph glyph-name="qaf.med" unicode="&#x642;" horiz-adv-x="535" arabic-form="medial" 
d="M365 90l-0.00195312 175c0 24 -5.16699 40 -15.5 48s-26.166 12 -47.499 12h-69c-21.333 0 -37.166 -4 -47.499 -12s-15.5 -24 -15.5 -48v-175h195zM546.998 0h-547v90h80v188c0 91.333 48.667 137 146 137h83c97.333 0 146 -45.667 146 -137v-188h92v-90zM203.998 476
l-64 64l64 64l64 -64zM331.998 476l-64 64l64 64l64 -64z" />
    <glyph glyph-name="kaf.fin" unicode="&#x643;" horiz-adv-x="743" arabic-form="final" 
d="M597 579l90 31.998v-473c0 -13.333 5.83301 -24.666 17.5 -33.999s25.167 -14 40.5 -14h28v-90h-28c-35.333 0 -67 11.333 -95 34c-24.667 -22.667 -61 -34 -109 -34h-366c-96.667 0 -145 46 -145 138v105l90 32v-125c0 -23.333 5.33301 -39.166 16 -47.499
s26.334 -12.5 47.001 -12.5h351c21.333 0 37.166 4 47.499 12s15.5 24 15.5 48v429zM444 335.998l-165 0.00195312v50h32c-2.66699 9.33301 -4 16.666 -4 21.999c0 23.333 7.83301 41.166 23.5 53.499s34.5 18.5 56.5 18.5c17.333 0 34 -3.66699 50 -11l-22 -44
c-11.333 4.66699 -21 7 -29 7c-19.333 0 -29 -8 -29 -24c0 -14.667 7 -22 21 -22h66v-50z" />
    <glyph glyph-name="kaf.ini" unicode="&#x643;" horiz-adv-x="463" arabic-form="initial" 
d="M443 604l-0.000976562 -91l-230 -107c68.667 -22.667 119.834 -55.167 153.501 -97.5s50.5 -85.833 50.5 -130.5c0 -51.333 -14.5 -93.833 -43.5 -127.5s-68.5 -50.5 -118.5 -50.5h-254v90h254c22 0 39.5 8.33301 52.5 25s19.5 37.667 19.5 63
c0 28.667 -14.5 56.5 -43.5 83.5s-73.167 49.833 -132.5 68.5l-61 19l-28 70z" />
    <glyph glyph-name="kaf.med" unicode="&#x643;" horiz-adv-x="533" arabic-form="medial" 
d="M255 0h-254.001v90h254c20.667 0 37.5 7.5 50.5 22.5s20.167 34.167 21.5 57.5v8c0 30 -14.5 59 -43.5 87s-73.167 49.667 -132.5 65l-61 19l-28 70l394 191v-91l-243 -113c68.667 -22.667 119.834 -55.167 153.501 -97.5s50.5 -85.833 50.5 -130.5v-8
c1.33301 -23.333 8.33301 -42.5 21 -57.5s29.667 -22.5 51 -22.5h52v-90h-52c-49.333 -0 -88.333 16.333 -117 49c-29.333 -32.667 -68.333 -49 -117 -49z" />
    <glyph glyph-name="lam.fin" unicode="&#x644;" horiz-adv-x="593" arabic-form="final" 
d="M276 -156c-83.333 0 -145.165 19.667 -185.498 59s-60.5 85 -60.5 137v203l90 32v-229c0 -24.667 6.16699 -45.167 18.5 -61.5s28.166 -27.833 47.499 -34.5s35.833 -11 49.5 -13s27.167 -3 40.5 -3s26.833 1 40.5 3s30.167 6.33301 49.5 13s35.166 18.167 47.499 34.5
s18.5 36.833 18.5 61.5v533l90 32v-473c0 -13.333 5.83301 -24.666 17.5 -33.999s25.167 -14 40.5 -14h21v-90h-21c-22 0 -42 4 -60 12c-6.66699 -46.667 -30 -86.334 -70 -119.001s-98 -49 -174 -49z" />
    <glyph glyph-name="lam.ini" unicode="&#x644;" horiz-adv-x="218" arabic-form="initial" 
d="M88 579l89.999 32.001v-473c0 -92 -48.333 -138 -145 -138h-33v90h25c20.667 0 36.334 4.16699 47.001 12.5s16 24.166 16 47.499v429z" />
    <glyph glyph-name="lam.med" unicode="&#x644;" horiz-adv-x="270" arabic-form="medial" 
d="M180 610l-0.000976562 -467c0 -14.667 5.66699 -27.167 17 -37.5s25 -15.5 41 -15.5h42v-90h-42c-40.667 0 -75 14 -103 42c-29.333 -28 -63.666 -42 -102.999 -42h-32v90h32c15.333 0 28.833 5.16699 40.5 15.5s17.5 22.833 17.5 37.5v435z" />
    <glyph glyph-name="meem.fin" unicode="&#x645;" horiz-adv-x="625" arabic-form="final" 
d="M30 -338l-0.000976562 290c0 92 48.333 138 145 138h15v188c0 91.333 48.667 137 146 137h229v-325h72v-90h-454c-21.333 0 -37.166 -3.83301 -47.499 -11.5s-15.5 -23.5 -15.5 -47.5v-247zM474.999 325h-132.001c-21.333 0 -37.166 -4 -47.499 -12s-15.5 -24 -15.5 -48
v-175h195v235z" />
    <glyph glyph-name="meem.ini" unicode="&#x645;" horiz-adv-x="515" arabic-form="initial" 
d="M100 143l0.000976562 135c0 91.333 48.667 137 146 137h229v-277c0 -92 -44 -138 -132 -138h-97c-48 -0 -84.333 11.333 -109 34c-26.667 -22.667 -58.334 -34 -95.001 -34h-42v90h42c16 0 29.667 5.16699 41 15.5s17 22.833 17 37.5zM385.001 325h-132
c-21.333 0 -37.166 -4 -47.499 -12s-15.5 -24 -15.5 -48v-115c0 -24.667 5.16699 -40.834 15.5 -48.501s26.166 -11.5 47.499 -11.5h68c22 0 38.167 3.83301 48.5 11.5s15.5 23.834 15.5 48.501v175z" />
    <glyph glyph-name="meem.med" unicode="&#x645;" horiz-adv-x="535" arabic-form="medial" 
d="M80 143l0.000976562 135c0 91.333 48.667 137 146 137h229v-325h92v-90h-321c-48 -0 -84.333 11.333 -109 34c-26.667 -22.667 -58.334 -34 -95.001 -34h-22v90h22c16 0 29.667 5.16699 41 15.5s17 22.833 17 37.5zM365.001 325l-132 0.000976562
c-21.333 0 -37.166 -4 -47.499 -12s-15.5 -24 -15.5 -48v-115c0 -24.667 5.16699 -40.834 15.5 -48.501s26.166 -11.5 47.499 -11.5h132v235z" />
    <glyph glyph-name="noon.fin" unicode="&#x646;" horiz-adv-x="592" arabic-form="final" 
d="M522 332l-0.000976562 -188.999c0 -14.667 5.66699 -27.167 17 -37.5s25 -15.5 41 -15.5h19v-90h-19c-23.333 0 -44 4.33301 -62 13c-8.66699 -44.667 -33 -82.334 -73 -113.001s-96.333 -46 -169 -46c-83.333 0 -145.166 19.667 -185.499 59s-60.5 85 -60.5 137v193
l90 32v-219c0 -70 52 -105 156 -105s156 35 156 105v244zM275.999 389.001l-64 64l64 64l64 -64z" />
    <glyph glyph-name="noon.ini" unicode="&#x646;" horiz-adv-x="244" arabic-form="initial" 
d="M142 483l-64 64l64 64l64 -64zM187 415l0.000976562 -277c0 -92 -48.333 -138 -145 -138h-42v90h34c21.333 0 37.166 3.83301 47.499 11.5s15.5 23.5 15.5 47.5v234z" />
    <glyph glyph-name="noon.med" unicode="&#x646;" horiz-adv-x="290" arabic-form="medial" 
d="M145 483l-64 64l64 64l64 -64zM190 415l-0.000976562 -272c0 -14.667 5.66699 -27.167 17 -37.5s25 -15.5 41 -15.5h48v-90h-48c-40.667 0 -75 14 -103 42c-29.333 -28 -63.666 -42 -102.999 -42h-42v90h42c15.333 0 28.833 5.16699 40.5 15.5s17.5 22.833 17.5 37.5v240
z" />
    <glyph glyph-name="heh.iso" unicode="&#x647;" horiz-adv-x="445" arabic-form="isolated" 
d="M405 415v-277c0 -92 -44 -138 -132 -138h-97c-97.333 0 -146 46 -146 138v140c0 91.333 48.667 137 146 137h229zM315 325h-132c-21.333 0 -37.166 -4 -47.499 -12s-15.5 -24 -15.5 -48v-115c0 -24.667 5.16699 -40.834 15.5 -48.501s26.166 -11.5 47.499 -11.5h68
c22 0 38.167 3.83301 48.5 11.5s15.5 23.834 15.5 48.501v175z" />
    <glyph glyph-name="heh.fin" unicode="&#x647;" horiz-adv-x="496" arabic-form="final" 
d="M256 0l-59 0.000976562c-46 0 -85.333 22.167 -118 66.5s-49 91.833 -49 142.5c0 26 2.66699 50.167 8 72.5s14.333 44.166 27 65.499s31.5 38 56.5 50s55.5 18 91.5 18h193v-325h99v-90h-189v60zM316 325.001h-103.001c-62 0 -93 -38.667 -93 -116
c0 -29.333 8.83301 -56.5 26.5 -81.5s39.834 -37.5 66.501 -37.5h103v235z" />
    <glyph glyph-name="heh.med" unicode="&#x647;" horiz-adv-x="491" arabic-form="medial" 
d="M496 0l-28 -0.000976562c-35.333 0 -59.5 -6 -72.5 -18s-19.5 -31.667 -19.5 -59c0 -30.667 -11.5 -59.667 -34.5 -87s-59.5 -41 -109.5 -41h-172v205h-60v90h60v187c0 92 44 138 132 138h22c36 0 66.5 -6 91.5 -18s43.833 -28.667 56.5 -50s21.667 -43.166 27 -65.499
s8 -46.5 8 -72.5c0 -50 -11 -94.667 -33 -134c26 10 60.667 15 104 15h28v-90zM150 264.999v-174.999h86c26 0 44.333 11.667 55 35s16 51.333 16 84c0 77.333 -31 116 -93 116c-22 0 -38.167 -3.83301 -48.5 -11.5s-15.5 -23.834 -15.5 -48.501zM286 -77
c0 36 3.66602 64.667 10.999 86c-14 -6 -29 -9 -45 -9h-102v-115h82c18.667 0 32.334 4 41.001 12s13 16.667 13 26z" />
    <glyph glyph-name="waw.fin" unicode="&#x648;" horiz-adv-x="486" arabic-form="final" 
d="M265 -222l-103 53.001c102.667 36 154 91.667 154 167v2h-119c-46 0 -85.333 22.167 -118 66.5s-49 91.833 -49 142.5c0 26 2.66699 50.167 8 72.5s14.333 44.166 27 65.499s31.5 38 56.5 50s55.5 18 91.5 18h193v-325h86v-90h-86v-2c0 -94.667 -47 -168 -141 -220z
M316 325.001h-103.001c-62 0 -93 -38.667 -93 -116c0 -29.333 8.83301 -56.5 26.5 -81.5s39.834 -37.5 66.501 -37.5h103v235z" />
    <glyph glyph-name="alefmaksura.fin" unicode="&#x649;" horiz-adv-x="727" arabic-form="final" 
d="M500 243l90 31.999v-67c0 -38.667 10.833 -68 32.5 -88s51.167 -30 88.5 -30h26v-90h-28c-47.333 0 -87 9 -119 27v-29c0 -92 -48.667 -138 -146 -138h-269c-96.667 0 -145 46 -145 138v173l90 32v-193c0 -23.333 5.33301 -39.166 16 -47.499s26.334 -12.5 47.001 -12.5
h254c21.333 0 37.166 4 47.499 12s15.5 24 15.5 48v233z" />
    <glyph glyph-name="yeh.fin" unicode="&#x64a;" horiz-adv-x="727" arabic-form="final" 
d="M246 -322l-64 64l64 64l64 -64zM374 -322l-64 64l64 64l64 -64zM500 243l90 31.999v-67c0 -38.667 10.833 -68 32.5 -88s51.167 -30 88.5 -30h26v-90h-28c-47.333 0 -87 9 -119 27v-29c0 -92 -48.667 -138 -146 -138h-269c-96.667 0 -145 46 -145 138v173l90 32v-193
c0 -23.333 5.33301 -39.166 16 -47.499s26.334 -12.5 47.001 -12.5h254c21.333 0 37.166 4 47.499 12s15.5 24 15.5 48v233z" />
    <glyph glyph-name="yeh.ini" unicode="&#x64a;" horiz-adv-x="274" arabic-form="initial" 
d="M64 -188l-64 64l64 64l64 -64zM192 -188l-64 64l64 64l64 -64zM217 415l0.000976562 -277c0 -92 -48.333 -138 -145 -138h-72v90h64c21.333 0 37.166 3.83301 47.499 11.5s15.5 23.5 15.5 47.5v234z" />
    <glyph glyph-name="yeh.med" unicode="&#x64a;" horiz-adv-x="290" arabic-form="medial" 
d="M82 -188l-64 64l64 64l64 -64zM210 -188l-64 64l64 64l64 -64zM190 415l-0.000976562 -272c0 -14.667 5.66699 -27.167 17 -37.5s25 -15.5 41 -15.5h48v-90h-48c-40.667 0 -75 14 -103 42c-29.333 -28 -63.666 -42 -102.999 -42h-42v90h42
c15.333 0 28.833 5.16699 40.5 15.5s17.5 22.833 17.5 37.5v240z" />
    <glyph glyph-name=".notdef" 
 />
    <glyph glyph-name="uni0020" unicode=" " horiz-adv-x="140" 
 />
    <glyph glyph-name="exclam" unicode="!" horiz-adv-x="288" 
d="M201 633l-13 -457l-71 -26l-15 483h99zM207 47c0 -16 -5.33301 -29.167 -16 -39.5s-23.667 -15.5 -39 -15.5c-16 0 -29.5 5.16699 -40.5 15.5s-16.5 23.5 -16.5 39.5c0 14.667 5.5 27.334 16.5 38.001s24.5 16 40.5 16c15.333 0 28.333 -5.33301 39 -16
s16 -23.334 16 -38.001z" />
    <glyph glyph-name="quotedbl" unicode="&#x22;" horiz-adv-x="329" 
d="M284 629l-13 -210h-64l-13 210h90zM134 629l-12 -210h-65l-12 210h89z" />
    <glyph glyph-name="numbersign" unicode="#" horiz-adv-x="519" 
d="M490 383h-87c-1.33301 -16.667 -4 -42 -8 -76l-9 -78h82v-59h-88l-18 -170h-68l17 170h-133l-18 -170h-68l18 170h-82v59h87l18 154h-83v60h87l18 164h69l-18 -164h134l18 164h69l-18 -164h81v-60zM334 383h-132c-1.33301 -16.667 -4 -42 -8 -76l-9 -78h132l9 78
c4 34 6.66699 59.333 8 76z" />
    <glyph glyph-name="quotesingle" unicode="'" horiz-adv-x="179" 
d="M133 629l-12 -210h-64l-12 210h88z" />
    <glyph glyph-name="parenleft" unicode="(" horiz-adv-x="273" 
d="M257 -156l-65 -31.999c-87.333 140.667 -131 288.667 -131 444c0 158 44 307 132 447l63 -29c-74.667 -129.333 -112 -267.333 -112 -414c0 -152.667 37.667 -291.334 113 -416.001z" />
    <glyph glyph-name="parenright" unicode=")" horiz-adv-x="273" 
d="M215 260c0 -162.667 -44 -312 -132 -448l-63 31c75.333 124 113 261.333 113 412s-38 290 -114 418l66 30c86.667 -139.333 130 -287 130 -443z" />
    <glyph glyph-name="asterisk" unicode="*" horiz-adv-x="337" 
d="M299 481l-33 -56l-80 59l10 -99h-63l10 98l-80 -58l-32 56l90 40l-90 39l33 57l80 -59l-10 99h63l-11 -98l81 58l32 -57l-90 -38z" />
    <glyph glyph-name="plus" unicode="+" horiz-adv-x="495" 
d="M457 232h-171v-179h-80v179h-169v71h169v179h80v-179h171v-71z" />
    <glyph glyph-name="comma" unicode="," horiz-adv-x="205" 
d="M101 105c16 0 29.333 -6.33105 40 -18.998s16 -29.334 16 -50.001c0 -54.667 -33 -112.667 -99 -174l-37 33c34 36 51 67 51 93c0 13.333 -4 25 -12 35c-8 10.667 -12 21 -12 31c0 13.333 5.16699 25.166 15.5 35.499s22.833 15.5 37.5 15.5z" />
    <glyph glyph-name="hyphen" unicode="-" horiz-adv-x="297" 
d="M256 224h-216v70h216v-70z" />
    <glyph glyph-name="period" unicode="." horiz-adv-x="205" 
d="M159 50c0 -16.667 -5.5 -30.5 -16.5 -41.5s-24.167 -16.5 -39.5 -16.5c-16.667 0 -30.5 5.5 -41.5 16.5s-16.5 24.833 -16.5 41.5c0 15.333 5.5 28.5 16.5 39.5s24.833 16.5 41.5 16.5c15.333 0 28.5 -5.5 39.5 -16.5s16.5 -24.167 16.5 -39.5z" />
    <glyph glyph-name="slash" unicode="/" horiz-adv-x="394" 
d="M396 681l-314 -825h-81l314 825h81z" />
    <glyph glyph-name="zero" unicode="0" horiz-adv-x="526" 
d="M483 310c0 -103.333 -21.5 -182.167 -64.5 -236.5s-97.5 -81.5 -163.5 -81.5c-142 0 -213 102 -213 306c0 103.333 21.167 182 63.5 236s96.833 81 163.5 81c142.667 0 214 -101.667 214 -305zM393 301.999c0 82.667 -10.668 143.5 -32.001 182.5
s-53.666 58.5 -96.999 58.5c-88 0 -132 -79.333 -132 -238c0 -160.667 43.333 -241 130 -241c40 0 71.833 19 95.5 57s35.5 98.333 35.5 181z" />
    <glyph glyph-name="one" unicode="1" horiz-adv-x="317" 
d="M236 0h-88v521l-113 -45l-14 79l146 52h69v-607z" />
    <glyph glyph-name="two" unicode="2" horiz-adv-x="451" 
d="M408 0l-355.999 -0.00195312v69l115 131c48 54.667 81.167 99.834 99.5 135.501s27.5 69.834 27.5 102.501c0 30 -8.83301 54.5 -26.5 73.5s-43.167 28.5 -76.5 28.5c-38 0 -78 -12.333 -120 -37l-13 76c49.333 24.667 100.333 37 153 37
c55.333 0 98.166 -15.5 128.499 -46.5s45.5 -70.5 45.5 -118.5c0 -41.333 -11.333 -83.833 -34 -127.5s-60 -95.5 -112 -155.5l-77 -91c36 2 118 3 246 3v-80z" />
    <glyph glyph-name="three" unicode="3" horiz-adv-x="440" 
d="M386 184c0 -56 -22.002 -101.833 -66.002 -137.5s-100.667 -53.5 -170 -53.5c-44 0 -77.333 3.33301 -100 10l9 77c24 -8.66699 56 -13 96 -13c42.667 0 76.834 10.667 102.501 32s38.5 48 38.5 80s-13.167 57.167 -39.5 75.5s-65.166 27.5 -116.499 27.5
c-27.333 0 -46.333 -1 -57 -3v69c126.667 -2.66699 190 34 190 110c0 27.333 -8.33301 48.333 -25 63s-40.667 22 -72 22c-39.333 0 -75 -9 -107 -27l-7 73c41.333 18 85 27 131 27c55.333 0 97.333 -13.333 126 -40s43 -61 43 -103c0 -33.333 -8.5 -62.5 -25.5 -87.5
s-40.833 -43.833 -71.5 -56.5c36 -10 65.167 -28 87.5 -54s33.5 -56.333 33.5 -91z" />
    <glyph glyph-name="four" unicode="4" horiz-adv-x="490" 
d="M472 141h-102v-141h-83v141h-267l-6 66l245 400h111v-388h102v-78zM288 218l-1.00098 304l-189 -305c8.66699 0.666992 42.334 1 101.001 1h89z" />
    <glyph glyph-name="five" unicode="5" horiz-adv-x="416" 
d="M383 202c0 -62.667 -22.668 -113.166 -68.001 -151.499s-103.666 -57.5 -174.999 -57.5c-34 0 -64.667 3 -92 9l9 78c24.667 -8 54.667 -12 90 -12c45.333 0 81.333 11.167 108 33.5s40 52.5 40 90.5c0 36.667 -13.833 64 -41.5 82s-71.5 27 -131.5 27h-9
c-20 0 -34.667 -0.666992 -44 -2v308h282v-80h-201v-155c78 0.666992 136.333 -13.833 175 -43.5s58 -71.834 58 -126.501z" />
    <glyph glyph-name="six" unicode="6" horiz-adv-x="518" 
d="M475 203c0 -61.333 -19.6689 -111.999 -59.002 -151.999s-91 -60 -155 -60c-39.333 0 -73.166 8.16699 -101.499 24.5s-49.5 38.166 -63.5 65.499s-24 55 -30 83s-9 57.667 -9 89c0 119.333 28.667 209.5 86 270.5s131 91.5 221 91.5c26.667 0 45.334 -1.33301 56.001 -4
v-75c-12.667 2.66699 -32.667 4 -60 4c-58 0 -103.833 -14.833 -137.5 -44.5s-56.5 -76.167 -68.5 -139.5l-4 -29c31.333 38 78.333 57 141 57c56 0 100.667 -16.5 134 -49.5s50 -76.833 50 -131.5zM386.998 191.001c0 38 -10.002 67.999 -30.002 89.999s-48.667 33 -86 33
c-35.333 0 -64.166 -11.333 -86.499 -34s-33.5 -49.667 -33.5 -81c0 -41.333 10.333 -74.166 31 -98.499s49.334 -36.5 86.001 -36.5c36 0 64.833 11.333 86.5 34s32.5 53.667 32.5 93z" />
    <glyph glyph-name="seven" unicode="7" horiz-adv-x="409" 
d="M383 607l0.00292969 -72.002c-34.667 -74.667 -68.334 -161.167 -101.001 -259.5s-58.334 -190.166 -77.001 -275.499h-96c22.667 90.667 51 185.334 85 284.001s65.333 179.667 94 243c-1.33301 0 -13 -0.166992 -35 -0.5s-41.667 -0.5 -59 -0.5
c-38.667 -0.666992 -96.334 -1 -173.001 -1v82h362z" />
    <glyph glyph-name="eight" unicode="8" horiz-adv-x="496" 
d="M444 157c0 -51.333 -19.6699 -91.832 -59.0029 -121.499s-88.666 -44.5 -147.999 -44.5s-105.666 14.167 -138.999 42.5s-50 65.166 -50 110.499c0 34.667 10.667 64.667 32 90s51 50.333 89 75c-74 42 -111 91.667 -111 149c0 48 18 86.833 54 116.5
s83.667 44.5 143 44.5c54 0 96.833 -13.5 128.5 -40.5s47.5 -61.833 47.5 -104.5c0 -32 -10 -60 -30 -84s-47.667 -47.667 -83 -71c40.667 -24 71.834 -48.5 93.501 -73.5s32.5 -54.5 32.5 -88.5zM342.997 467.001c0 24.667 -8.16699 44.5 -24.5 59.5s-40.5 22.5 -72.5 22.5
c-30.667 0 -55.167 -7.33301 -73.5 -22s-27.5 -34.667 -27.5 -60c0 -36 34 -73 102 -111c64 38.667 96 75.667 96 111zM353.997 149.001c0 25.333 -10.3311 47.5 -30.998 66.5s-49.334 37.833 -86.001 56.5c-31.333 -19.333 -55.666 -38.333 -72.999 -57
s-26 -39.667 -26 -63c0 -27.333 9.66699 -49 29 -65s45.666 -24 78.999 -24c31.333 0 57.166 7.33301 77.499 22s30.5 36 30.5 64z" />
    <glyph glyph-name="nine" unicode="9" horiz-adv-x="524" 
d="M464 355c0 -119.333 -27.333 -209.668 -82 -271.001s-129.667 -92 -225 -92c-28 0 -53 1.66699 -75 5v80c22.667 -6.66699 50.667 -10 84 -10c108.667 0 174 59.333 196 178c0 0.666992 0.5 2.66699 1.5 6s1.83301 6.5 2.5 9.5s1 5.83301 1 8.5c0.666992 3.33301 1 6 1 8
c-30 -38 -76 -57 -138 -57c-56 0 -100.333 16.667 -133 50s-49 77.666 -49 132.999c0 60.667 19.5 111.334 58.5 152.001s89.833 61 152.5 61c32.667 0 61.5 -5.66699 86.5 -17s44.833 -25.666 59.5 -42.999s26.5 -38 35.5 -62s15.167 -47.167 18.5 -69.5s5 -45.5 5 -69.5z
M369 407.998c0 42 -10.168 74.999 -30.501 98.999s-49.166 36 -86.499 36c-34 0 -62 -11.667 -84 -35s-33 -54 -33 -92c0 -37.333 10 -67.166 30 -89.499s48.333 -33.5 85 -33.5c35.333 0 64 11.5 86 34.5s33 49.833 33 80.5z" />
    <glyph glyph-name="colon" unicode=":" horiz-adv-x="257" 
d="M199 311c0 -16 -5.5 -29.5 -16.5 -40.5s-24.5 -16.5 -40.5 -16.5s-29.667 5.5 -41 16.5s-17 24.5 -17 40.5c0 16.667 5.66699 30.5 17 41.5s25 16.5 41 16.5s29.5 -5.5 40.5 -16.5s16.5 -24.833 16.5 -41.5zM199 50c0 -16.667 -5.5 -30.5 -16.5 -41.5
s-24.5 -16.5 -40.5 -16.5s-29.667 5.5 -41 16.5s-17 24.833 -17 41.5c0 15.333 5.66699 28.5 17 39.5s25 16.5 41 16.5s29.5 -5.5 40.5 -16.5s16.5 -24.167 16.5 -39.5z" />
    <glyph glyph-name="semicolon" unicode=";" horiz-adv-x="257" 
d="M199 311c0 -16 -5.5 -29.5 -16.5 -40.5s-24.5 -16.5 -40.5 -16.5s-29.667 5.5 -41 16.5s-17 24.5 -17 40.5c0 16.667 5.66699 30.5 17 41.5s25 16.5 41 16.5s29.5 -5.5 40.5 -16.5s16.5 -24.833 16.5 -41.5zM141 105c16 0 29.333 -6.33105 40 -18.998
s16 -29.334 16 -50.001c0 -54.667 -33 -112.667 -99 -174l-36 33c34 36 51 67.667 51 95c0 12 -4 23 -12 33c-8 10.667 -12 21 -12 31c0 13.333 5 25.166 15 35.499s22.333 15.5 37 15.5z" />
    <glyph glyph-name="less" unicode="&#x3c;" horiz-adv-x="495" 
d="M402 76l-55 -59l-284 255l284 256l55 -55l-231 -200z" />
    <glyph glyph-name="equal" unicode="=" horiz-adv-x="495" 
d="M445 308h-397v72h397v-72zM445 156h-397v71h397v-71z" />
    <glyph glyph-name="greater" unicode="&#x3e;" horiz-adv-x="495" 
d="M430 273l-284 -256l-55 55l232 200l-232 198l55 58z" />
    <glyph glyph-name="bracketleft" unicode="[" horiz-adv-x="290" 
d="M257 -178h-182v871h182v-65h-102v-738h102v-68z" />
    <glyph glyph-name="backslash" unicode="\" horiz-adv-x="398" 
d="M404 -144h-82l-314 825h82z" />
    <glyph glyph-name="bracketright" unicode="]" horiz-adv-x="290" 
d="M213 -178h-181v68h103v738h-103v65h181v-871z" />
    <glyph glyph-name="underscore" unicode="_" horiz-adv-x="495" 
d="M495 -223h-496v68h496v-68z" />
    <glyph glyph-name="grave" unicode="`" horiz-adv-x="332" 
d="M237 544l-47 -37l-118 131l58 46z" />
    <glyph glyph-name="braceleft" unicode="{" horiz-adv-x="307" 
d="M279 -178l-18 0.000976562c-51.333 0 -87.833 14.333 -109.5 43s-32.5 73 -32.5 133v157c0 34 -7.16699 58 -21.5 72s-38.833 22 -73.5 24v68c36 1.33301 60.833 8.66602 74.5 21.999s20.5 37.333 20.5 72v105c0 56 10.833 99.167 32.5 129.5s58.167 45.5 109.5 45.5h18
v-65c-31.333 0 -52.833 -7.66699 -64.5 -23s-17.5 -43.333 -17.5 -84v-104c0 -72.667 -25.667 -117 -77 -133c51.333 -12.667 77 -56.667 77 -132v-155c0 -40.667 5.83301 -68.667 17.5 -84s33.167 -23 64.5 -23v-68z" />
    <glyph glyph-name="bar" unicode="|" horiz-adv-x="256" 
d="M160 -221h-67v899h67v-899z" />
    <glyph glyph-name="braceright" unicode="}" horiz-adv-x="304" 
d="M287 319v-67.999c-34.667 -2 -59.167 -10 -73.5 -24s-21.5 -38 -21.5 -72v-157c0 -60 -10.833 -104.333 -32.5 -133s-58.167 -43 -109.5 -43h-18v68c31.333 0 52.833 7.66699 64.5 23s17.5 43.333 17.5 84v155c0 72 25 116.333 75 133c-50 11.333 -75 54 -75 128v108
c0 40.667 -5.83301 68.667 -17.5 84s-33.167 23 -64.5 23v65h18c94.667 0 142 -58.333 142 -175v-101c0 -36.667 6.83301 -61.834 20.5 -75.501s38.5 -21.167 74.5 -22.5z" />
    <glyph glyph-name="uni060C" unicode="&#x60c;" horiz-adv-x="193" 
d="M110 208l40 -34.002c-18 -24.667 -27 -46.334 -27 -65.001c0 -13.333 4 -25 12 -35c8 -11.333 12 -21.666 12 -30.999c0 -13.333 -5.16699 -25.166 -15.5 -35.499s-22.833 -15.5 -37.5 -15.5c-16 0 -29.333 6.33301 -40 19s-16 29.334 -16 50.001
c0 45.333 24 94.333 72 147z" />
    <glyph glyph-name="uni061B" unicode="&#x61b;" horiz-adv-x="257" 
d="M84 50c0 16 5.5 29.5 16.5 40.5s24.5 16.5 40.5 16.5s29.667 -5.5 41 -16.5s17 -24.5 17 -40.5c0 -16.667 -5.66699 -30.5 -17 -41.5s-25 -16.5 -41 -16.5s-29.5 5.5 -40.5 16.5s-16.5 24.833 -16.5 41.5zM142 256c-16 0 -29.333 6.33008 -40 18.9971
s-16 29.334 -16 50.001c0 54.667 33 112.667 99 174l36 -33c-34 -36 -51 -67.667 -51 -95c0 -12 4 -23 12 -33c8 -11.333 12 -21.666 12 -30.999c0 -13.333 -5 -25.166 -15 -35.499s-22.333 -15.5 -37 -15.5z" />
    <glyph glyph-name="uni061F" unicode="&#x61f;" horiz-adv-x="400" 
d="M74 463c0 44.667 21 83.4951 63 116.495s100.333 52.5 175 58.5l34 -77c-54.667 -2 -98.334 -12.667 -131.001 -32s-49 -44 -49 -74c0 -13.333 3.5 -26.666 10.5 -39.999s13.333 -23.166 19 -29.499s15.834 -16.833 30.501 -31.5
c15.333 -15.333 27.5 -28.166 36.5 -38.499s17.667 -24.666 26 -42.999s12.5 -37.166 12.5 -56.499c0 -11.333 -1 -23 -3 -35l-91 -31c6 22 9 39.667 9 53c0 25.333 -5.83301 46.833 -17.5 64.5s-28.5 36.5 -50.5 56.5c-16 15.333 -28.333 28 -37 38s-17 24.167 -25 42.5
s-12 37.833 -12 58.5zM192 46.9951c0 14.667 5.5 27.334 16.5 38.001s24.167 16 39.5 16c16 0 29.333 -5.33301 40 -16s16 -23.334 16 -38.001c0 -16 -5.16699 -29.167 -15.5 -39.5s-23.833 -15.5 -40.5 -15.5c-16 0 -29.333 5.16699 -40 15.5s-16 23.5 -16 39.5z" />
    <glyph glyph-name="uni0640" unicode="&#x640;" horiz-adv-x="280" 
d="M0 0v90h284v-90h-284z" />
    <glyph glyph-name="fathatan" unicode="&#x64b;" 
d="M189 649v-48l-189 -31v48zM189 574v-48l-189 -31v48z" />
    <glyph glyph-name="dammatan" unicode="&#x64c;" 
d="M47 470c14.667 -32.667 35.6689 -52.667 63.002 -60v13c-1.33301 44 10.167 78.333 34.5 103s54.166 27.334 89.499 8.00098c21.333 -12.667 35.833 -27.834 43.5 -45.501s5.5 -40.167 -6.5 -67.5c-22.667 -42 -66.667 -63 -132 -63c-21.333 0.666992 -42.333 5 -63 13
s-35.334 19 -44.001 33l-38 -25l-19 44zM210.002 492c-8 2 -14.834 3.33301 -20.501 4s-10.5 -1.83301 -14.5 -7.5s-7.16699 -11 -9.5 -16s-4 -12.167 -5 -21.5s-1.66699 -17.166 -2 -23.499s-0.5 -13.5 -0.5 -21.5c35.333 3.33301 59 15.666 71 36.999
c10.667 22 4.33398 38.333 -18.999 49z" />
    <glyph glyph-name="kasratan" unicode="&#x64d;" 
d="M189 -70v-48l-189 -30v48zM189 -145v-48l-189 -30v48z" />
    <glyph glyph-name="fatha" unicode="&#x64e;" 
d="M189 665v-48l-189 -31v48z" />
    <glyph glyph-name="damma" unicode="&#x64f;" 
d="M-34 399l24 42.001c20 -12 41.333 -21.667 64 -29c-4 49.333 7 86.5 33 111.5s56.333 28.167 91 9.5c21.333 -12.667 35.833 -27.834 43.5 -45.501s5.5 -40.167 -6.5 -67.5c-9.33301 -17.333 -24.5 -32 -45.5 -44s-50 -17.333 -87 -16s-75.833 14.333 -116.5 39z
M173 442.001c9.33301 21.333 3.33203 37.334 -18.001 48.001c-18 8.66699 -31.167 5.16699 -39.5 -10.5s-12.833 -39.834 -13.5 -72.501c34.667 2 58.334 13.667 71.001 35z" />
    <glyph glyph-name="kasra" unicode="&#x650;" 
d="M189 -69v-48l-189 -30v48z" />
    <glyph glyph-name="shadda" unicode="&#x651;" 
d="M120 405c-18.667 -2.66699 -34.333 -1.49805 -47 3.50195s-21.667 12.667 -27 23s-9 20.333 -11 30s-3 20.5 -3 32.5v52l48 8v-60c0 -29.333 8 -44 24 -44c2.66699 0 8 0.666992 16 2v94l48 8v-68c1.33301 -24 9.33301 -36 24 -36c2.66699 0 8 0.666992 16 2v94l48 8
v-116c0 -16.667 -8.33301 -26.334 -25 -29.001l-23 -4c-22.667 -2.66699 -41 -0.333984 -55 6.99902l-10 -3z" />
    <glyph glyph-name="uni0652" unicode="&#x652;" 
d="M91 646c23.333 0 44.333 -9 63 -27s28 -39.667 28 -65c0 -29.333 -8 -51.333 -24 -66s-38.333 -22 -67 -22c-28 0 -50.167 7.33301 -66.5 22s-24.5 36.667 -24.5 66c-0 25.333 9.33301 47 28 65s39.667 27 63 27zM91 598c-10.667 0 -20.5 -4.33301 -29.5 -13
s-13.5 -19 -13.5 -31c0 -26.667 14.333 -40 43 -40s43 13.333 43 40c0 12 -4.33301 22.333 -13 31s-18.667 13 -30 13z" />
    <glyph glyph-name="uni0653" unicode="&#x653;" horiz-adv-x="220" 
d="M-7 689c18.667 16 36 25.998 52 29.998s30.167 4.16699 42.5 0.5s24.5 -7.66699 36.5 -12s26.667 -5.66602 44 -3.99902s36 8.83398 56 21.501v-50c-25.333 -16.667 -48.5 -25 -69.5 -25s-38.333 4 -52 12s-30.167 11 -49.5 9s-39.333 -13.333 -60 -34v52z" />
    <glyph glyph-name="uni0654" unicode="&#x654;" horiz-adv-x="220" 
d="M187 667l-168 0.000976562v45h32c-6 15.333 -9 28.333 -9 39c0 26.667 9.33301 47.167 28 61.5s41 21.5 67 21.5c8 0 16.5 -1 25.5 -3s15.833 -4 20.5 -6l7 -3l-19 -41c-12.667 5.33301 -24.667 8 -36 8c-12 0 -23 -3.16699 -33 -9.5s-15 -15.833 -15 -28.5
s3.66699 -22.334 11 -29.001s16.333 -10 27 -10h62v-45z" />
    <glyph glyph-name="uni0655" unicode="&#x655;" horiz-adv-x="220" 
d="M187 -206l-168 0.000976562v45h32c-6 15.333 -9 28.333 -9 39c0 26.667 9.33301 47.167 28 61.5s41 21.5 67 21.5c8 0 16.5 -1 25.5 -3s15.833 -4 20.5 -6l7 -3l-19 -41c-12.667 5.33301 -24.667 8 -36 8c-12 0 -23 -3.16699 -33 -9.5s-15 -15.833 -15 -28.5
s3.66699 -22.334 11 -29.001s16.333 -10 27 -10h62v-45z" />
    <glyph glyph-name="uni0660" unicode="&#x660;" horiz-adv-x="526" 
d="M483 310c0 -103.333 -21.5 -182.167 -64.5 -236.5s-97.5 -81.5 -163.5 -81.5c-142 0 -213 102 -213 306c0 103.333 21.167 182 63.5 236s96.833 81 163.5 81c142.667 0 214 -101.667 214 -305zM393 301.999c0 82.667 -10.668 143.5 -32.001 182.5
s-53.666 58.5 -96.999 58.5c-88 0 -132 -79.333 -132 -238c0 -160.667 43.333 -241 130 -241c40 0 71.833 19 95.5 57s35.5 98.333 35.5 181z" />
    <glyph glyph-name="uni0661" unicode="&#x661;" horiz-adv-x="317" 
d="M236 0h-88v521l-113 -45l-14 79l146 52h69v-607z" />
    <glyph glyph-name="uni0662" unicode="&#x662;" horiz-adv-x="451" 
d="M408 0l-355.999 -0.00195312v69l115 131c48 54.667 81.167 99.834 99.5 135.501s27.5 69.834 27.5 102.501c0 30 -8.83301 54.5 -26.5 73.5s-43.167 28.5 -76.5 28.5c-38 0 -78 -12.333 -120 -37l-13 76c49.333 24.667 100.333 37 153 37
c55.333 0 98.166 -15.5 128.499 -46.5s45.5 -70.5 45.5 -118.5c0 -41.333 -11.333 -83.833 -34 -127.5s-60 -95.5 -112 -155.5l-77 -91c36 2 118 3 246 3v-80z" />
    <glyph glyph-name="uni0663" unicode="&#x663;" horiz-adv-x="440" 
d="M386 184c0 -56 -22.002 -101.833 -66.002 -137.5s-100.667 -53.5 -170 -53.5c-44 0 -77.333 3.33301 -100 10l9 77c24 -8.66699 56 -13 96 -13c42.667 0 76.834 10.667 102.501 32s38.5 48 38.5 80s-13.167 57.167 -39.5 75.5s-65.166 27.5 -116.499 27.5
c-27.333 0 -46.333 -1 -57 -3v69c126.667 -2.66699 190 34 190 110c0 27.333 -8.33301 48.333 -25 63s-40.667 22 -72 22c-39.333 0 -75 -9 -107 -27l-7 73c41.333 18 85 27 131 27c55.333 0 97.333 -13.333 126 -40s43 -61 43 -103c0 -33.333 -8.5 -62.5 -25.5 -87.5
s-40.833 -43.833 -71.5 -56.5c36 -10 65.167 -28 87.5 -54s33.5 -56.333 33.5 -91z" />
    <glyph glyph-name="uni0664" unicode="&#x664;" horiz-adv-x="490" 
d="M472 141h-102v-141h-83v141h-267l-6 66l245 400h111v-388h102v-78zM288 218l-1.00098 304l-189 -305c8.66699 0.666992 42.334 1 101.001 1h89z" />
    <glyph glyph-name="uni0665" unicode="&#x665;" horiz-adv-x="416" 
d="M383 202c0 -62.667 -22.668 -113.166 -68.001 -151.499s-103.666 -57.5 -174.999 -57.5c-34 0 -64.667 3 -92 9l9 78c24.667 -8 54.667 -12 90 -12c45.333 0 81.333 11.167 108 33.5s40 52.5 40 90.5c0 36.667 -13.833 64 -41.5 82s-71.5 27 -131.5 27h-9
c-20 0 -34.667 -0.666992 -44 -2v308h282v-80h-201v-155c78 0.666992 136.333 -13.833 175 -43.5s58 -71.834 58 -126.501z" />
    <glyph glyph-name="uni0666" unicode="&#x666;" horiz-adv-x="518" 
d="M475 203c0 -61.333 -19.6689 -111.999 -59.002 -151.999s-91 -60 -155 -60c-39.333 0 -73.166 8.16699 -101.499 24.5s-49.5 38.166 -63.5 65.499s-24 55 -30 83s-9 57.667 -9 89c0 119.333 28.667 209.5 86 270.5s131 91.5 221 91.5c26.667 0 45.334 -1.33301 56.001 -4
v-75c-12.667 2.66699 -32.667 4 -60 4c-58 0 -103.833 -14.833 -137.5 -44.5s-56.5 -76.167 -68.5 -139.5l-4 -29c31.333 38 78.333 57 141 57c56 0 100.667 -16.5 134 -49.5s50 -76.833 50 -131.5zM386.998 191.001c0 38 -10.002 67.999 -30.002 89.999s-48.667 33 -86 33
c-35.333 0 -64.166 -11.333 -86.499 -34s-33.5 -49.667 -33.5 -81c0 -41.333 10.333 -74.166 31 -98.499s49.334 -36.5 86.001 -36.5c36 0 64.833 11.333 86.5 34s32.5 53.667 32.5 93z" />
    <glyph glyph-name="uni0667" unicode="&#x667;" horiz-adv-x="409" 
d="M383 607l0.00292969 -72.002c-34.667 -74.667 -68.334 -161.167 -101.001 -259.5s-58.334 -190.166 -77.001 -275.499h-96c22.667 90.667 51 185.334 85 284.001s65.333 179.667 94 243c-1.33301 0 -13 -0.166992 -35 -0.5s-41.667 -0.5 -59 -0.5
c-38.667 -0.666992 -96.334 -1 -173.001 -1v82h362z" />
    <glyph glyph-name="uni0668" unicode="&#x668;" horiz-adv-x="496" 
d="M444 157c0 -51.333 -19.6699 -91.832 -59.0029 -121.499s-88.666 -44.5 -147.999 -44.5s-105.666 14.167 -138.999 42.5s-50 65.166 -50 110.499c0 34.667 10.667 64.667 32 90s51 50.333 89 75c-74 42 -111 91.667 -111 149c0 48 18 86.833 54 116.5
s83.667 44.5 143 44.5c54 0 96.833 -13.5 128.5 -40.5s47.5 -61.833 47.5 -104.5c0 -32 -10 -60 -30 -84s-47.667 -47.667 -83 -71c40.667 -24 71.834 -48.5 93.501 -73.5s32.5 -54.5 32.5 -88.5zM342.997 467.001c0 24.667 -8.16699 44.5 -24.5 59.5s-40.5 22.5 -72.5 22.5
c-30.667 0 -55.167 -7.33301 -73.5 -22s-27.5 -34.667 -27.5 -60c0 -36 34 -73 102 -111c64 38.667 96 75.667 96 111zM353.997 149.001c0 25.333 -10.3311 47.5 -30.998 66.5s-49.334 37.833 -86.001 56.5c-31.333 -19.333 -55.666 -38.333 -72.999 -57
s-26 -39.667 -26 -63c0 -27.333 9.66699 -49 29 -65s45.666 -24 78.999 -24c31.333 0 57.166 7.33301 77.499 22s30.5 36 30.5 64z" />
    <glyph glyph-name="uni0669" unicode="&#x669;" horiz-adv-x="524" 
d="M464 355c0 -119.333 -27.333 -209.668 -82 -271.001s-129.667 -92 -225 -92c-28 0 -53 1.66699 -75 5v80c22.667 -6.66699 50.667 -10 84 -10c108.667 0 174 59.333 196 178c0 0.666992 0.5 2.66699 1.5 6s1.83301 6.5 2.5 9.5s1 5.83301 1 8.5c0.666992 3.33301 1 6 1 8
c-30 -38 -76 -57 -138 -57c-56 0 -100.333 16.667 -133 50s-49 77.666 -49 132.999c0 60.667 19.5 111.334 58.5 152.001s89.833 61 152.5 61c32.667 0 61.5 -5.66699 86.5 -17s44.833 -25.666 59.5 -42.999s26.5 -38 35.5 -62s15.167 -47.167 18.5 -69.5s5 -45.5 5 -69.5z
M369 407.998c0 42 -10.168 74.999 -30.501 98.999s-49.166 36 -86.499 36c-34 0 -62 -11.667 -84 -35s-33 -54 -33 -92c0 -37.333 10 -67.166 30 -89.499s48.333 -33.5 85 -33.5c35.333 0 64 11.5 86 34.5s33 49.833 33 80.5z" />
    <glyph glyph-name="uni066A" unicode="&#x66a;" horiz-adv-x="675" 
d="M634 139c0 -43.333 -12.5 -78.833 -37.5 -106.5s-57.833 -41.5 -98.5 -41.5c-85.333 0 -128 46.333 -128 139c0 42 12.5 76.667 37.5 104s57.833 41 98.5 41c85.333 0 128 -45.333 128 -136zM586 587l-447 -607l-55 40l448 606zM302 480c0 -44 -12.333 -79.5 -37 -106.5
s-57.667 -40.5 -99 -40.5c-84.667 0 -127 46 -127 138c0 42.667 12.333 77.5 37 104.5s57.667 40.5 99 40.5c84.667 0 127 -45.333 127 -136zM564 132c0 30 -4.83301 51.833 -14.5 65.5s-25.5 20.5 -47.5 20.5c-19.333 0 -34.5 -7.5 -45.5 -22.5s-16.5 -35.167 -16.5 -60.5
c0 -56.667 21.667 -85 65 -85c18 0 32.333 7.33301 43 22s16 34.667 16 60zM233 474c0 29.333 -5 50.667 -15 64s-26 20 -48 20c-19.333 0 -34.5 -7.16699 -45.5 -21.5s-16.5 -34.166 -16.5 -59.499c0 -58 21.667 -87 65 -87c18 0 32.5 7.66699 43.5 23
s16.5 35.666 16.5 60.999z" />
    <glyph glyph-name=".null" 
 />
    <glyph glyph-name="nonmarkingreturn" horiz-adv-x="333" 
 />
    <glyph glyph-name="_868" horiz-adv-x="170" 
d="M40 508l90 32v-513l-90 -33v514zM149 578l-145 0.00195312v50h22c-2.66699 9.33301 -4 16.666 -4 21.999c0 23.333 7.83301 41.166 23.5 53.499s34.5 18.5 56.5 18.5c17.333 0 34 -3.66699 50 -11l-22 -44c-12 4.66699 -21.667 7 -29 7c-19.333 0 -29 -8 -29 -24
c0 -14.667 7 -22 21 -22h56v-50z" />
  </font>
</defs>
</svg>
